ISO-10303-21;
HEADER;
/* Generated by software containing ST-Developer
 * from STEP Tools, Inc. (www.steptools.com) 
 */

FILE_DESCRIPTION(
/* description */ (''),
/* implementation_level */ '2;1');

FILE_NAME(
/* name */ 'MotorHousingV2.stp',
/* time_stamp */ '2026-08-17T14:02:40-04:00',
/* author */ ('mateo'),
/* organization */ (''),
/* preprocessor_version */ 'ST-DEVELOPER v20.1',
/* originating_system */ 'Autodesk Inventor 2027',
/* authorisation */ '');

FILE_SCHEMA (('AUTOMOTIVE_DESIGN { 1 0 10303 214 3 1 1 }'));
ENDSEC;

DATA;
#10=MECHANICAL_DESIGN_GEOMETRIC_PRESENTATION_REPRESENTATION('',(#17,#18,
#19,#20,#21,#22),#1791);
#11=GEOMETRICALLY_BOUNDED_WIREFRAME_SHAPE_REPRESENTATION('',(#12),#1790);
#12=GEOMETRIC_CURVE_SET('Sketch7',(#405,#406,#407,#16,#409,#1787));
#13=SHAPE_REPRESENTATION_RELATIONSHIP('SRR','None',#1798,#15);
#14=SHAPE_REPRESENTATION_RELATIONSHIP('SRR','None',#1798,#11);
#15=ADVANCED_BREP_SHAPE_REPRESENTATION('',(#23),#1790);
#16=TRIMMED_CURVE('',#408,(#1784,PARAMETER_VALUE(4.71238900733824)),(#1785,
PARAMETER_VALUE(5.79531017639248)),.T.,.PARAMETER.);
#17=STYLED_ITEM('',(#1807),#23);
#18=STYLED_ITEM('',(#1809),#405);
#19=STYLED_ITEM('',(#1809),#406);
#20=STYLED_ITEM('',(#1809),#407);
#21=STYLED_ITEM('',(#1808),#16);
#22=STYLED_ITEM('',(#1809),#409);
#23=MANIFOLD_SOLID_BREP('Solid1',#1016);
#24=FACE_BOUND('',#125,.T.);
#25=FACE_BOUND('',#128,.T.);
#26=FACE_BOUND('',#131,.T.);
#27=FACE_BOUND('',#133,.T.);
#28=FACE_BOUND('',#169,.T.);
#29=FACE_BOUND('',#170,.T.);
#30=FACE_BOUND('',#171,.T.);
#31=FACE_BOUND('',#172,.T.);
#32=FACE_BOUND('',#173,.T.);
#33=FACE_BOUND('',#174,.T.);
#34=FACE_BOUND('',#175,.T.);
#35=FACE_BOUND('',#176,.T.);
#36=FACE_BOUND('',#179,.T.);
#37=FACE_BOUND('',#181,.T.);
#38=FACE_BOUND('',#182,.T.);
#39=FACE_BOUND('',#183,.T.);
#40=FACE_BOUND('',#184,.T.);
#41=FACE_BOUND('',#185,.T.);
#42=PLANE('',#1042);
#43=PLANE('',#1043);
#44=PLANE('',#1044);
#45=PLANE('',#1045);
#46=PLANE('',#1046);
#47=PLANE('',#1047);
#48=PLANE('',#1048);
#49=PLANE('',#1049);
#50=PLANE('',#1053);
#51=PLANE('',#1057);
#52=PLANE('',#1059);
#53=PLANE('',#1066);
#54=PLANE('',#1076);
#55=PLANE('',#1083);
#56=PLANE('',#1093);
#57=PLANE('',#1109);
#58=PLANE('',#1119);
#59=PLANE('',#1126);
#60=PLANE('',#1136);
#61=PLANE('',#1152);
#62=PLANE('',#1156);
#63=PLANE('',#1157);
#64=FACE_OUTER_BOUND('',#116,.T.);
#65=FACE_OUTER_BOUND('',#117,.T.);
#66=FACE_OUTER_BOUND('',#118,.T.);
#67=FACE_OUTER_BOUND('',#119,.T.);
#68=FACE_OUTER_BOUND('',#120,.T.);
#69=FACE_OUTER_BOUND('',#121,.T.);
#70=FACE_OUTER_BOUND('',#122,.T.);
#71=FACE_OUTER_BOUND('',#123,.T.);
#72=FACE_OUTER_BOUND('',#124,.T.);
#73=FACE_OUTER_BOUND('',#126,.T.);
#74=FACE_OUTER_BOUND('',#127,.T.);
#75=FACE_OUTER_BOUND('',#129,.T.);
#76=FACE_OUTER_BOUND('',#130,.T.);
#77=FACE_OUTER_BOUND('',#132,.T.);
#78=FACE_OUTER_BOUND('',#134,.T.);
#79=FACE_OUTER_BOUND('',#135,.T.);
#80=FACE_OUTER_BOUND('',#136,.T.);
#81=FACE_OUTER_BOUND('',#137,.T.);
#82=FACE_OUTER_BOUND('',#138,.T.);
#83=FACE_OUTER_BOUND('',#139,.T.);
#84=FACE_OUTER_BOUND('',#140,.T.);
#85=FACE_OUTER_BOUND('',#141,.T.);
#86=FACE_OUTER_BOUND('',#142,.T.);
#87=FACE_OUTER_BOUND('',#143,.T.);
#88=FACE_OUTER_BOUND('',#144,.T.);
#89=FACE_OUTER_BOUND('',#145,.T.);
#90=FACE_OUTER_BOUND('',#146,.T.);
#91=FACE_OUTER_BOUND('',#147,.T.);
#92=FACE_OUTER_BOUND('',#148,.T.);
#93=FACE_OUTER_BOUND('',#149,.T.);
#94=FACE_OUTER_BOUND('',#150,.T.);
#95=FACE_OUTER_BOUND('',#151,.T.);
#96=FACE_OUTER_BOUND('',#152,.T.);
#97=FACE_OUTER_BOUND('',#153,.T.);
#98=FACE_OUTER_BOUND('',#154,.T.);
#99=FACE_OUTER_BOUND('',#155,.T.);
#100=FACE_OUTER_BOUND('',#156,.T.);
#101=FACE_OUTER_BOUND('',#157,.T.);
#102=FACE_OUTER_BOUND('',#158,.T.);
#103=FACE_OUTER_BOUND('',#159,.T.);
#104=FACE_OUTER_BOUND('',#160,.T.);
#105=FACE_OUTER_BOUND('',#161,.T.);
#106=FACE_OUTER_BOUND('',#162,.T.);
#107=FACE_OUTER_BOUND('',#163,.T.);
#108=FACE_OUTER_BOUND('',#164,.T.);
#109=FACE_OUTER_BOUND('',#165,.T.);
#110=FACE_OUTER_BOUND('',#166,.T.);
#111=FACE_OUTER_BOUND('',#167,.T.);
#112=FACE_OUTER_BOUND('',#168,.T.);
#113=FACE_OUTER_BOUND('',#177,.T.);
#114=FACE_OUTER_BOUND('',#178,.T.);
#115=FACE_OUTER_BOUND('',#180,.T.);
#116=EDGE_LOOP('',(#648,#649,#650,#651));
#117=EDGE_LOOP('',(#652));
#118=EDGE_LOOP('',(#653,#654,#655,#656));
#119=EDGE_LOOP('',(#657,#658,#659,#660));
#120=EDGE_LOOP('',(#661,#662,#663,#664));
#121=EDGE_LOOP('',(#665,#666,#667,#668));
#122=EDGE_LOOP('',(#669,#670,#671,#672));
#123=EDGE_LOOP('',(#673,#674,#675,#676));
#124=EDGE_LOOP('',(#677,#678,#679,#680,#681,#682));
#125=EDGE_LOOP('',(#683));
#126=EDGE_LOOP('',(#684,#685,#686,#687));
#127=EDGE_LOOP('',(#688));
#128=EDGE_LOOP('',(#689,#690,#691,#692,#693,#694));
#129=EDGE_LOOP('',(#695,#696,#697,#698));
#130=EDGE_LOOP('',(#699));
#131=EDGE_LOOP('',(#700));
#132=EDGE_LOOP('',(#701));
#133=EDGE_LOOP('',(#702));
#134=EDGE_LOOP('',(#703,#704,#705,#706));
#135=EDGE_LOOP('',(#707,#708,#709,#710));
#136=EDGE_LOOP('',(#711,#712,#713,#714));
#137=EDGE_LOOP('',(#715,#716,#717,#718));
#138=EDGE_LOOP('',(#719,#720,#721,#722));
#139=EDGE_LOOP('',(#723,#724,#725,#726));
#140=EDGE_LOOP('',(#727,#728,#729,#730));
#141=EDGE_LOOP('',(#731,#732,#733,#734));
#142=EDGE_LOOP('',(#735,#736,#737,#738));
#143=EDGE_LOOP('',(#739,#740,#741,#742));
#144=EDGE_LOOP('',(#743,#744,#745,#746));
#145=EDGE_LOOP('',(#747,#748,#749,#750));
#146=EDGE_LOOP('',(#751,#752,#753,#754));
#147=EDGE_LOOP('',(#755,#756,#757,#758));
#148=EDGE_LOOP('',(#759,#760,#761,#762));
#149=EDGE_LOOP('',(#763,#764,#765,#766,#767,#768,#769,#770,#771,#772,#773,
#774,#775,#776,#777,#778,#779,#780,#781));
#150=EDGE_LOOP('',(#782,#783,#784,#785));
#151=EDGE_LOOP('',(#786,#787,#788,#789));
#152=EDGE_LOOP('',(#790,#791,#792,#793));
#153=EDGE_LOOP('',(#794,#795,#796,#797));
#154=EDGE_LOOP('',(#798,#799,#800,#801));
#155=EDGE_LOOP('',(#802,#803,#804,#805));
#156=EDGE_LOOP('',(#806,#807,#808,#809));
#157=EDGE_LOOP('',(#810,#811,#812,#813));
#158=EDGE_LOOP('',(#814,#815,#816,#817));
#159=EDGE_LOOP('',(#818,#819,#820,#821));
#160=EDGE_LOOP('',(#822,#823,#824,#825));
#161=EDGE_LOOP('',(#826,#827,#828,#829));
#162=EDGE_LOOP('',(#830,#831,#832,#833));
#163=EDGE_LOOP('',(#834,#835,#836,#837));
#164=EDGE_LOOP('',(#838,#839,#840,#841));
#165=EDGE_LOOP('',(#842,#843,#844,#845));
#166=EDGE_LOOP('',(#846,#847,#848,#849));
#167=EDGE_LOOP('',(#850,#851,#852,#853));
#168=EDGE_LOOP('',(#854));
#169=EDGE_LOOP('',(#855,#856,#857,#858,#859,#860,#861,#862));
#170=EDGE_LOOP('',(#863,#864,#865,#866,#867,#868,#869,#870));
#171=EDGE_LOOP('',(#871,#872,#873,#874,#875,#876,#877,#878));
#172=EDGE_LOOP('',(#879,#880,#881,#882,#883,#884,#885,#886));
#173=EDGE_LOOP('',(#887));
#174=EDGE_LOOP('',(#888));
#175=EDGE_LOOP('',(#889));
#176=EDGE_LOOP('',(#890));
#177=EDGE_LOOP('',(#891,#892,#893,#894));
#178=EDGE_LOOP('',(#895));
#179=EDGE_LOOP('',(#896));
#180=EDGE_LOOP('',(#897));
#181=EDGE_LOOP('',(#898,#899,#900,#901,#902,#903,#904,#905,#906,#907,#908,
#909,#910,#911,#912,#913,#914,#915,#916,#917,#918,#919,#920,#921,#922,#923,
#924,#925,#926,#927,#928,#929));
#182=EDGE_LOOP('',(#930));
#183=EDGE_LOOP('',(#931));
#184=EDGE_LOOP('',(#932));
#185=EDGE_LOOP('',(#933));
#186=LINE('',#1494,#262);
#187=LINE('',#1500,#263);
#188=LINE('',#1502,#264);
#189=LINE('',#1504,#265);
#190=LINE('',#1505,#266);
#191=LINE('',#1508,#267);
#192=LINE('',#1510,#268);
#193=LINE('',#1511,#269);
#194=LINE('',#1514,#270);
#195=LINE('',#1516,#271);
#196=LINE('',#1517,#272);
#197=LINE('',#1520,#273);
#198=LINE('',#1522,#274);
#199=LINE('',#1523,#275);
#200=LINE('',#1526,#276);
#201=LINE('',#1528,#277);
#202=LINE('',#1529,#278);
#203=LINE('',#1531,#279);
#204=LINE('',#1532,#280);
#205=LINE('',#1538,#281);
#206=LINE('',#1545,#282);
#207=LINE('',#1556,#283);
#208=LINE('',#1559,#284);
#209=LINE('',#1565,#285);
#210=LINE('',#1568,#286);
#211=LINE('',#1571,#287);
#212=LINE('',#1573,#288);
#213=LINE('',#1574,#289);
#214=LINE('',#1580,#290);
#215=LINE('',#1586,#291);
#216=LINE('',#1592,#292);
#217=LINE('',#1594,#293);
#218=LINE('',#1595,#294);
#219=LINE('',#1601,#295);
#220=LINE('',#1604,#296);
#221=LINE('',#1610,#297);
#222=LINE('',#1613,#298);
#223=LINE('',#1616,#299);
#224=LINE('',#1618,#300);
#225=LINE('',#1619,#301);
#226=LINE('',#1625,#302);
#227=LINE('',#1631,#303);
#228=LINE('',#1637,#304);
#229=LINE('',#1639,#305);
#230=LINE('',#1640,#306);
#231=LINE('',#1646,#307);
#232=LINE('',#1649,#308);
#233=LINE('',#1654,#309);
#234=LINE('',#1655,#310);
#235=LINE('',#1659,#311);
#236=LINE('',#1663,#312);
#237=LINE('',#1674,#313);
#238=LINE('',#1677,#314);
#239=LINE('',#1679,#315);
#240=LINE('',#1680,#316);
#241=LINE('',#1686,#317);
#242=LINE('',#1692,#318);
#243=LINE('',#1698,#319);
#244=LINE('',#1700,#320);
#245=LINE('',#1701,#321);
#246=LINE('',#1706,#322);
#247=LINE('',#1713,#323);
#248=LINE('',#1716,#324);
#249=LINE('',#1718,#325);
#250=LINE('',#1719,#326);
#251=LINE('',#1725,#327);
#252=LINE('',#1731,#328);
#253=LINE('',#1737,#329);
#254=LINE('',#1739,#330);
#255=LINE('',#1740,#331);
#256=LINE('',#1745,#332);
#257=LINE('',#1751,#333);
#258=LINE('',#1757,#334);
#259=LINE('',#1763,#335);
#260=LINE('',#1769,#336);
#261=LINE('',#1776,#337);
#262=VECTOR('',#1169,3.25);
#263=VECTOR('',#1176,10.);
#264=VECTOR('',#1177,10.);
#265=VECTOR('',#1178,10.);
#266=VECTOR('',#1179,10.);
#267=VECTOR('',#1182,10.);
#268=VECTOR('',#1183,10.);
#269=VECTOR('',#1184,10.);
#270=VECTOR('',#1187,10.);
#271=VECTOR('',#1188,10.);
#272=VECTOR('',#1189,10.);
#273=VECTOR('',#1192,10.);
#274=VECTOR('',#1193,10.);
#275=VECTOR('',#1194,10.);
#276=VECTOR('',#1197,10.);
#277=VECTOR('',#1198,10.);
#278=VECTOR('',#1199,10.);
#279=VECTOR('',#1202,10.);
#280=VECTOR('',#1203,10.);
#281=VECTOR('',#1210,10.);
#282=VECTOR('',#1219,10.25);
#283=VECTOR('',#1232,10.);
#284=VECTOR('',#1235,10.);
#285=VECTOR('',#1240,10.);
#286=VECTOR('',#1243,10.);
#287=VECTOR('',#1246,10.);
#288=VECTOR('',#1247,10.);
#289=VECTOR('',#1248,10.);
#290=VECTOR('',#1255,10.);
#291=VECTOR('',#1262,10.);
#292=VECTOR('',#1269,10.);
#293=VECTOR('',#1272,10.);
#294=VECTOR('',#1273,10.);
#295=VECTOR('',#1278,10.);
#296=VECTOR('',#1281,10.);
#297=VECTOR('',#1286,10.);
#298=VECTOR('',#1289,10.);
#299=VECTOR('',#1292,10.);
#300=VECTOR('',#1293,10.);
#301=VECTOR('',#1294,10.);
#302=VECTOR('',#1301,10.);
#303=VECTOR('',#1308,10.);
#304=VECTOR('',#1315,10.);
#305=VECTOR('',#1318,10.);
#306=VECTOR('',#1319,10.);
#307=VECTOR('',#1324,10.);
#308=VECTOR('',#1327,10.);
#309=VECTOR('',#1332,10.);
#310=VECTOR('',#1333,13.);
#311=VECTOR('',#1336,10.);
#312=VECTOR('',#1339,10.);
#313=VECTOR('',#1356,10.);
#314=VECTOR('',#1359,10.);
#315=VECTOR('',#1360,10.);
#316=VECTOR('',#1361,10.);
#317=VECTOR('',#1368,10.);
#318=VECTOR('',#1375,10.);
#319=VECTOR('',#1382,10.);
#320=VECTOR('',#1385,10.);
#321=VECTOR('',#1386,10.);
#322=VECTOR('',#1391,10.);
#323=VECTOR('',#1400,10.);
#324=VECTOR('',#1403,10.);
#325=VECTOR('',#1404,10.);
#326=VECTOR('',#1405,10.);
#327=VECTOR('',#1412,10.);
#328=VECTOR('',#1419,10.);
#329=VECTOR('',#1426,10.);
#330=VECTOR('',#1429,10.);
#331=VECTOR('',#1430,10.);
#332=VECTOR('',#1435,2.);
#333=VECTOR('',#1442,2.);
#334=VECTOR('',#1449,2.);
#335=VECTOR('',#1456,2.);
#336=VECTOR('',#1463,22.);
#337=VECTOR('',#1472,40.5);
#338=CIRCLE('',#1040,3.25);
#339=CIRCLE('',#1041,3.25);
#340=CIRCLE('',#1051,10.);
#341=CIRCLE('',#1052,10.);
#342=CIRCLE('',#1055,10.25);
#343=CIRCLE('',#1056,10.25);
#344=CIRCLE('',#1058,13.);
#345=CIRCLE('',#1061,3.000000000003);
#346=CIRCLE('',#1062,3.000000000003);
#347=CIRCLE('',#1064,3.);
#348=CIRCLE('',#1065,3.);
#349=CIRCLE('',#1068,3.);
#350=CIRCLE('',#1069,3.);
#351=CIRCLE('',#1071,21.);
#352=CIRCLE('',#1072,21.);
#353=CIRCLE('',#1074,3.);
#354=CIRCLE('',#1075,3.);
#355=CIRCLE('',#1078,3.000000000003);
#356=CIRCLE('',#1079,3.000000000003);
#357=CIRCLE('',#1081,3.);
#358=CIRCLE('',#1082,3.);
#359=CIRCLE('',#1085,3.);
#360=CIRCLE('',#1086,3.);
#361=CIRCLE('',#1088,21.);
#362=CIRCLE('',#1089,21.);
#363=CIRCLE('',#1091,3.);
#364=CIRCLE('',#1092,3.);
#365=CIRCLE('',#1095,3.000000000003);
#366=CIRCLE('',#1096,3.000000000003);
#367=CIRCLE('',#1098,13.);
#368=CIRCLE('',#1099,13.);
#369=CIRCLE('',#1100,13.);
#370=CIRCLE('',#1101,13.);
#371=CIRCLE('',#1102,13.);
#372=CIRCLE('',#1103,13.);
#373=CIRCLE('',#1104,13.);
#374=CIRCLE('',#1105,13.);
#375=CIRCLE('',#1107,3.);
#376=CIRCLE('',#1108,3.);
#377=CIRCLE('',#1111,3.);
#378=CIRCLE('',#1112,3.);
#379=CIRCLE('',#1114,21.);
#380=CIRCLE('',#1115,21.);
#381=CIRCLE('',#1117,3.);
#382=CIRCLE('',#1118,3.);
#383=CIRCLE('',#1121,3.000000000003);
#384=CIRCLE('',#1122,3.000000000003);
#385=CIRCLE('',#1124,3.);
#386=CIRCLE('',#1125,3.);
#387=CIRCLE('',#1128,3.);
#388=CIRCLE('',#1129,3.);
#389=CIRCLE('',#1131,21.);
#390=CIRCLE('',#1132,21.);
#391=CIRCLE('',#1134,3.);
#392=CIRCLE('',#1135,3.);
#393=CIRCLE('',#1138,2.);
#394=CIRCLE('',#1139,2.);
#395=CIRCLE('',#1141,2.);
#396=CIRCLE('',#1142,2.);
#397=CIRCLE('',#1144,2.);
#398=CIRCLE('',#1145,2.);
#399=CIRCLE('',#1147,2.);
#400=CIRCLE('',#1148,2.);
#401=CIRCLE('',#1150,22.);
#402=CIRCLE('',#1151,22.);
#403=CIRCLE('',#1154,40.5);
#404=CIRCLE('',#1155,40.5);
#405=CIRCLE('',#1158,10.);
#406=CIRCLE('',#1159,5.);
#407=CIRCLE('',#1160,13.);
#408=CIRCLE('',#1161,3.);
#409=CIRCLE('',#1162,10.25);
#410=VERTEX_POINT('',#1491);
#411=VERTEX_POINT('',#1493);
#412=VERTEX_POINT('',#1498);
#413=VERTEX_POINT('',#1499);
#414=VERTEX_POINT('',#1501);
#415=VERTEX_POINT('',#1503);
#416=VERTEX_POINT('',#1507);
#417=VERTEX_POINT('',#1509);
#418=VERTEX_POINT('',#1513);
#419=VERTEX_POINT('',#1515);
#420=VERTEX_POINT('',#1519);
#421=VERTEX_POINT('',#1521);
#422=VERTEX_POINT('',#1525);
#423=VERTEX_POINT('',#1527);
#424=VERTEX_POINT('',#1535);
#425=VERTEX_POINT('',#1537);
#426=VERTEX_POINT('',#1542);
#427=VERTEX_POINT('',#1544);
#428=VERTEX_POINT('',#1548);
#429=VERTEX_POINT('',#1552);
#430=VERTEX_POINT('',#1553);
#431=VERTEX_POINT('',#1555);
#432=VERTEX_POINT('',#1557);
#433=VERTEX_POINT('',#1561);
#434=VERTEX_POINT('',#1562);
#435=VERTEX_POINT('',#1564);
#436=VERTEX_POINT('',#1566);
#437=VERTEX_POINT('',#1570);
#438=VERTEX_POINT('',#1572);
#439=VERTEX_POINT('',#1576);
#440=VERTEX_POINT('',#1578);
#441=VERTEX_POINT('',#1582);
#442=VERTEX_POINT('',#1584);
#443=VERTEX_POINT('',#1588);
#444=VERTEX_POINT('',#1590);
#445=VERTEX_POINT('',#1597);
#446=VERTEX_POINT('',#1598);
#447=VERTEX_POINT('',#1600);
#448=VERTEX_POINT('',#1602);
#449=VERTEX_POINT('',#1606);
#450=VERTEX_POINT('',#1607);
#451=VERTEX_POINT('',#1609);
#452=VERTEX_POINT('',#1611);
#453=VERTEX_POINT('',#1615);
#454=VERTEX_POINT('',#1617);
#455=VERTEX_POINT('',#1621);
#456=VERTEX_POINT('',#1623);
#457=VERTEX_POINT('',#1627);
#458=VERTEX_POINT('',#1629);
#459=VERTEX_POINT('',#1633);
#460=VERTEX_POINT('',#1635);
#461=VERTEX_POINT('',#1642);
#462=VERTEX_POINT('',#1643);
#463=VERTEX_POINT('',#1645);
#464=VERTEX_POINT('',#1647);
#465=VERTEX_POINT('',#1651);
#466=VERTEX_POINT('',#1653);
#467=VERTEX_POINT('',#1656);
#468=VERTEX_POINT('',#1658);
#469=VERTEX_POINT('',#1660);
#470=VERTEX_POINT('',#1662);
#471=VERTEX_POINT('',#1670);
#472=VERTEX_POINT('',#1672);
#473=VERTEX_POINT('',#1676);
#474=VERTEX_POINT('',#1678);
#475=VERTEX_POINT('',#1682);
#476=VERTEX_POINT('',#1684);
#477=VERTEX_POINT('',#1688);
#478=VERTEX_POINT('',#1690);
#479=VERTEX_POINT('',#1694);
#480=VERTEX_POINT('',#1696);
#481=VERTEX_POINT('',#1703);
#482=VERTEX_POINT('',#1705);
#483=VERTEX_POINT('',#1709);
#484=VERTEX_POINT('',#1711);
#485=VERTEX_POINT('',#1715);
#486=VERTEX_POINT('',#1717);
#487=VERTEX_POINT('',#1721);
#488=VERTEX_POINT('',#1723);
#489=VERTEX_POINT('',#1727);
#490=VERTEX_POINT('',#1729);
#491=VERTEX_POINT('',#1733);
#492=VERTEX_POINT('',#1735);
#493=VERTEX_POINT('',#1742);
#494=VERTEX_POINT('',#1744);
#495=VERTEX_POINT('',#1748);
#496=VERTEX_POINT('',#1750);
#497=VERTEX_POINT('',#1754);
#498=VERTEX_POINT('',#1756);
#499=VERTEX_POINT('',#1760);
#500=VERTEX_POINT('',#1762);
#501=VERTEX_POINT('',#1766);
#502=VERTEX_POINT('',#1768);
#503=VERTEX_POINT('',#1773);
#504=VERTEX_POINT('',#1775);
#505=EDGE_CURVE('',#410,#410,#338,.T.);
#506=EDGE_CURVE('',#410,#411,#186,.T.);
#507=EDGE_CURVE('',#411,#411,#339,.T.);
#508=EDGE_CURVE('',#412,#413,#187,.T.);
#509=EDGE_CURVE('',#412,#414,#188,.T.);
#510=EDGE_CURVE('',#414,#415,#189,.T.);
#511=EDGE_CURVE('',#413,#415,#190,.T.);
#512=EDGE_CURVE('',#416,#412,#191,.T.);
#513=EDGE_CURVE('',#416,#417,#192,.T.);
#514=EDGE_CURVE('',#417,#414,#193,.T.);
#515=EDGE_CURVE('',#418,#416,#194,.T.);
#516=EDGE_CURVE('',#418,#419,#195,.T.);
#517=EDGE_CURVE('',#419,#417,#196,.T.);
#518=EDGE_CURVE('',#420,#418,#197,.T.);
#519=EDGE_CURVE('',#420,#421,#198,.T.);
#520=EDGE_CURVE('',#421,#419,#199,.T.);
#521=EDGE_CURVE('',#422,#420,#200,.T.);
#522=EDGE_CURVE('',#422,#423,#201,.T.);
#523=EDGE_CURVE('',#423,#421,#202,.T.);
#524=EDGE_CURVE('',#413,#422,#203,.T.);
#525=EDGE_CURVE('',#415,#423,#204,.T.);
#526=EDGE_CURVE('',#424,#424,#340,.T.);
#527=EDGE_CURVE('',#424,#425,#205,.T.);
#528=EDGE_CURVE('',#425,#425,#341,.T.);
#529=EDGE_CURVE('',#426,#426,#342,.T.);
#530=EDGE_CURVE('',#426,#427,#206,.T.);
#531=EDGE_CURVE('',#427,#427,#343,.T.);
#532=EDGE_CURVE('',#428,#428,#344,.T.);
#533=EDGE_CURVE('',#429,#430,#345,.T.);
#534=EDGE_CURVE('',#431,#429,#207,.T.);
#535=EDGE_CURVE('',#432,#431,#346,.T.);
#536=EDGE_CURVE('',#432,#430,#208,.T.);
#537=EDGE_CURVE('',#433,#434,#347,.T.);
#538=EDGE_CURVE('',#435,#433,#209,.T.);
#539=EDGE_CURVE('',#436,#435,#348,.T.);
#540=EDGE_CURVE('',#436,#434,#210,.T.);
#541=EDGE_CURVE('',#434,#437,#211,.T.);
#542=EDGE_CURVE('',#438,#436,#212,.T.);
#543=EDGE_CURVE('',#438,#437,#213,.T.);
#544=EDGE_CURVE('',#437,#439,#349,.T.);
#545=EDGE_CURVE('',#440,#438,#350,.T.);
#546=EDGE_CURVE('',#440,#439,#214,.T.);
#547=EDGE_CURVE('',#439,#441,#351,.T.);
#548=EDGE_CURVE('',#442,#440,#352,.T.);
#549=EDGE_CURVE('',#442,#441,#215,.T.);
#550=EDGE_CURVE('',#441,#443,#353,.T.);
#551=EDGE_CURVE('',#444,#442,#354,.T.);
#552=EDGE_CURVE('',#444,#443,#216,.T.);
#553=EDGE_CURVE('',#443,#429,#217,.T.);
#554=EDGE_CURVE('',#431,#444,#218,.T.);
#555=EDGE_CURVE('',#445,#446,#355,.T.);
#556=EDGE_CURVE('',#447,#445,#219,.T.);
#557=EDGE_CURVE('',#448,#447,#356,.T.);
#558=EDGE_CURVE('',#448,#446,#220,.T.);
#559=EDGE_CURVE('',#449,#450,#357,.T.);
#560=EDGE_CURVE('',#451,#449,#221,.T.);
#561=EDGE_CURVE('',#452,#451,#358,.T.);
#562=EDGE_CURVE('',#452,#450,#222,.T.);
#563=EDGE_CURVE('',#450,#453,#223,.T.);
#564=EDGE_CURVE('',#454,#452,#224,.T.);
#565=EDGE_CURVE('',#454,#453,#225,.T.);
#566=EDGE_CURVE('',#453,#455,#359,.T.);
#567=EDGE_CURVE('',#456,#454,#360,.T.);
#568=EDGE_CURVE('',#456,#455,#226,.T.);
#569=EDGE_CURVE('',#455,#457,#361,.T.);
#570=EDGE_CURVE('',#458,#456,#362,.T.);
#571=EDGE_CURVE('',#458,#457,#227,.T.);
#572=EDGE_CURVE('',#457,#459,#363,.T.);
#573=EDGE_CURVE('',#460,#458,#364,.T.);
#574=EDGE_CURVE('',#460,#459,#228,.T.);
#575=EDGE_CURVE('',#459,#445,#229,.T.);
#576=EDGE_CURVE('',#447,#460,#230,.T.);
#577=EDGE_CURVE('',#461,#462,#365,.T.);
#578=EDGE_CURVE('',#463,#461,#231,.T.);
#579=EDGE_CURVE('',#464,#463,#366,.T.);
#580=EDGE_CURVE('',#464,#462,#232,.T.);
#581=EDGE_CURVE('',#465,#464,#367,.T.);
#582=EDGE_CURVE('',#465,#466,#233,.T.);
#583=EDGE_CURVE('',#466,#428,#234,.T.);
#584=EDGE_CURVE('',#467,#466,#368,.T.);
#585=EDGE_CURVE('',#468,#467,#235,.T.);
#586=EDGE_CURVE('',#469,#468,#369,.T.);
#587=EDGE_CURVE('',#469,#470,#236,.T.);
#588=EDGE_CURVE('',#446,#470,#370,.T.);
#589=EDGE_CURVE('',#451,#448,#371,.T.);
#590=EDGE_CURVE('',#430,#449,#372,.T.);
#591=EDGE_CURVE('',#435,#432,#373,.T.);
#592=EDGE_CURVE('',#462,#433,#374,.T.);
#593=EDGE_CURVE('',#466,#471,#375,.T.);
#594=EDGE_CURVE('',#472,#465,#376,.T.);
#595=EDGE_CURVE('',#472,#471,#237,.T.);
#596=EDGE_CURVE('',#471,#473,#238,.T.);
#597=EDGE_CURVE('',#474,#472,#239,.T.);
#598=EDGE_CURVE('',#474,#473,#240,.T.);
#599=EDGE_CURVE('',#473,#475,#377,.T.);
#600=EDGE_CURVE('',#476,#474,#378,.T.);
#601=EDGE_CURVE('',#476,#475,#241,.T.);
#602=EDGE_CURVE('',#475,#477,#379,.T.);
#603=EDGE_CURVE('',#478,#476,#380,.T.);
#604=EDGE_CURVE('',#478,#477,#242,.T.);
#605=EDGE_CURVE('',#477,#479,#381,.T.);
#606=EDGE_CURVE('',#480,#478,#382,.T.);
#607=EDGE_CURVE('',#480,#479,#243,.T.);
#608=EDGE_CURVE('',#479,#461,#244,.T.);
#609=EDGE_CURVE('',#463,#480,#245,.T.);
#610=EDGE_CURVE('',#481,#467,#383,.T.);
#611=EDGE_CURVE('',#482,#481,#246,.T.);
#612=EDGE_CURVE('',#468,#482,#384,.T.);
#613=EDGE_CURVE('',#470,#483,#385,.T.);
#614=EDGE_CURVE('',#484,#469,#386,.T.);
#615=EDGE_CURVE('',#484,#483,#247,.T.);
#616=EDGE_CURVE('',#483,#485,#248,.T.);
#617=EDGE_CURVE('',#486,#484,#249,.T.);
#618=EDGE_CURVE('',#486,#485,#250,.T.);
#619=EDGE_CURVE('',#485,#487,#387,.T.);
#620=EDGE_CURVE('',#488,#486,#388,.T.);
#621=EDGE_CURVE('',#488,#487,#251,.T.);
#622=EDGE_CURVE('',#487,#489,#389,.T.);
#623=EDGE_CURVE('',#490,#488,#390,.T.);
#624=EDGE_CURVE('',#490,#489,#252,.T.);
#625=EDGE_CURVE('',#489,#491,#391,.T.);
#626=EDGE_CURVE('',#492,#490,#392,.T.);
#627=EDGE_CURVE('',#492,#491,#253,.T.);
#628=EDGE_CURVE('',#491,#481,#254,.T.);
#629=EDGE_CURVE('',#482,#492,#255,.T.);
#630=EDGE_CURVE('',#493,#493,#393,.T.);
#631=EDGE_CURVE('',#493,#494,#256,.T.);
#632=EDGE_CURVE('',#494,#494,#394,.T.);
#633=EDGE_CURVE('',#495,#495,#395,.T.);
#634=EDGE_CURVE('',#495,#496,#257,.T.);
#635=EDGE_CURVE('',#496,#496,#396,.T.);
#636=EDGE_CURVE('',#497,#497,#397,.T.);
#637=EDGE_CURVE('',#497,#498,#258,.T.);
#638=EDGE_CURVE('',#498,#498,#398,.T.);
#639=EDGE_CURVE('',#499,#499,#399,.T.);
#640=EDGE_CURVE('',#499,#500,#259,.T.);
#641=EDGE_CURVE('',#500,#500,#400,.T.);
#642=EDGE_CURVE('',#501,#501,#401,.T.);
#643=EDGE_CURVE('',#501,#502,#260,.T.);
#644=EDGE_CURVE('',#502,#502,#402,.T.);
#645=EDGE_CURVE('',#503,#503,#403,.T.);
#646=EDGE_CURVE('',#503,#504,#261,.T.);
#647=EDGE_CURVE('',#504,#504,#404,.T.);
#648=ORIENTED_EDGE('',*,*,#505,.F.);
#649=ORIENTED_EDGE('',*,*,#506,.T.);
#650=ORIENTED_EDGE('',*,*,#507,.T.);
#651=ORIENTED_EDGE('',*,*,#506,.F.);
#652=ORIENTED_EDGE('',*,*,#507,.F.);
#653=ORIENTED_EDGE('',*,*,#508,.F.);
#654=ORIENTED_EDGE('',*,*,#509,.T.);
#655=ORIENTED_EDGE('',*,*,#510,.T.);
#656=ORIENTED_EDGE('',*,*,#511,.F.);
#657=ORIENTED_EDGE('',*,*,#512,.F.);
#658=ORIENTED_EDGE('',*,*,#513,.T.);
#659=ORIENTED_EDGE('',*,*,#514,.T.);
#660=ORIENTED_EDGE('',*,*,#509,.F.);
#661=ORIENTED_EDGE('',*,*,#515,.F.);
#662=ORIENTED_EDGE('',*,*,#516,.T.);
#663=ORIENTED_EDGE('',*,*,#517,.T.);
#664=ORIENTED_EDGE('',*,*,#513,.F.);
#665=ORIENTED_EDGE('',*,*,#518,.F.);
#666=ORIENTED_EDGE('',*,*,#519,.T.);
#667=ORIENTED_EDGE('',*,*,#520,.T.);
#668=ORIENTED_EDGE('',*,*,#516,.F.);
#669=ORIENTED_EDGE('',*,*,#521,.F.);
#670=ORIENTED_EDGE('',*,*,#522,.T.);
#671=ORIENTED_EDGE('',*,*,#523,.T.);
#672=ORIENTED_EDGE('',*,*,#519,.F.);
#673=ORIENTED_EDGE('',*,*,#524,.F.);
#674=ORIENTED_EDGE('',*,*,#511,.T.);
#675=ORIENTED_EDGE('',*,*,#525,.T.);
#676=ORIENTED_EDGE('',*,*,#522,.F.);
#677=ORIENTED_EDGE('',*,*,#525,.F.);
#678=ORIENTED_EDGE('',*,*,#510,.F.);
#679=ORIENTED_EDGE('',*,*,#514,.F.);
#680=ORIENTED_EDGE('',*,*,#517,.F.);
#681=ORIENTED_EDGE('',*,*,#520,.F.);
#682=ORIENTED_EDGE('',*,*,#523,.F.);
#683=ORIENTED_EDGE('',*,*,#505,.T.);
#684=ORIENTED_EDGE('',*,*,#526,.F.);
#685=ORIENTED_EDGE('',*,*,#527,.T.);
#686=ORIENTED_EDGE('',*,*,#528,.F.);
#687=ORIENTED_EDGE('',*,*,#527,.F.);
#688=ORIENTED_EDGE('',*,*,#526,.T.);
#689=ORIENTED_EDGE('',*,*,#508,.T.);
#690=ORIENTED_EDGE('',*,*,#524,.T.);
#691=ORIENTED_EDGE('',*,*,#521,.T.);
#692=ORIENTED_EDGE('',*,*,#518,.T.);
#693=ORIENTED_EDGE('',*,*,#515,.T.);
#694=ORIENTED_EDGE('',*,*,#512,.T.);
#695=ORIENTED_EDGE('',*,*,#529,.F.);
#696=ORIENTED_EDGE('',*,*,#530,.T.);
#697=ORIENTED_EDGE('',*,*,#531,.F.);
#698=ORIENTED_EDGE('',*,*,#530,.F.);
#699=ORIENTED_EDGE('',*,*,#532,.T.);
#700=ORIENTED_EDGE('',*,*,#529,.T.);
#701=ORIENTED_EDGE('',*,*,#531,.T.);
#702=ORIENTED_EDGE('',*,*,#528,.T.);
#703=ORIENTED_EDGE('',*,*,#533,.F.);
#704=ORIENTED_EDGE('',*,*,#534,.F.);
#705=ORIENTED_EDGE('',*,*,#535,.F.);
#706=ORIENTED_EDGE('',*,*,#536,.T.);
#707=ORIENTED_EDGE('',*,*,#537,.F.);
#708=ORIENTED_EDGE('',*,*,#538,.F.);
#709=ORIENTED_EDGE('',*,*,#539,.F.);
#710=ORIENTED_EDGE('',*,*,#540,.T.);
#711=ORIENTED_EDGE('',*,*,#541,.F.);
#712=ORIENTED_EDGE('',*,*,#540,.F.);
#713=ORIENTED_EDGE('',*,*,#542,.F.);
#714=ORIENTED_EDGE('',*,*,#543,.T.);
#715=ORIENTED_EDGE('',*,*,#544,.F.);
#716=ORIENTED_EDGE('',*,*,#543,.F.);
#717=ORIENTED_EDGE('',*,*,#545,.F.);
#718=ORIENTED_EDGE('',*,*,#546,.T.);
#719=ORIENTED_EDGE('',*,*,#547,.F.);
#720=ORIENTED_EDGE('',*,*,#546,.F.);
#721=ORIENTED_EDGE('',*,*,#548,.F.);
#722=ORIENTED_EDGE('',*,*,#549,.T.);
#723=ORIENTED_EDGE('',*,*,#550,.F.);
#724=ORIENTED_EDGE('',*,*,#549,.F.);
#725=ORIENTED_EDGE('',*,*,#551,.F.);
#726=ORIENTED_EDGE('',*,*,#552,.T.);
#727=ORIENTED_EDGE('',*,*,#553,.F.);
#728=ORIENTED_EDGE('',*,*,#552,.F.);
#729=ORIENTED_EDGE('',*,*,#554,.F.);
#730=ORIENTED_EDGE('',*,*,#534,.T.);
#731=ORIENTED_EDGE('',*,*,#555,.F.);
#732=ORIENTED_EDGE('',*,*,#556,.F.);
#733=ORIENTED_EDGE('',*,*,#557,.F.);
#734=ORIENTED_EDGE('',*,*,#558,.T.);
#735=ORIENTED_EDGE('',*,*,#559,.F.);
#736=ORIENTED_EDGE('',*,*,#560,.F.);
#737=ORIENTED_EDGE('',*,*,#561,.F.);
#738=ORIENTED_EDGE('',*,*,#562,.T.);
#739=ORIENTED_EDGE('',*,*,#563,.F.);
#740=ORIENTED_EDGE('',*,*,#562,.F.);
#741=ORIENTED_EDGE('',*,*,#564,.F.);
#742=ORIENTED_EDGE('',*,*,#565,.T.);
#743=ORIENTED_EDGE('',*,*,#566,.F.);
#744=ORIENTED_EDGE('',*,*,#565,.F.);
#745=ORIENTED_EDGE('',*,*,#567,.F.);
#746=ORIENTED_EDGE('',*,*,#568,.T.);
#747=ORIENTED_EDGE('',*,*,#569,.F.);
#748=ORIENTED_EDGE('',*,*,#568,.F.);
#749=ORIENTED_EDGE('',*,*,#570,.F.);
#750=ORIENTED_EDGE('',*,*,#571,.T.);
#751=ORIENTED_EDGE('',*,*,#572,.F.);
#752=ORIENTED_EDGE('',*,*,#571,.F.);
#753=ORIENTED_EDGE('',*,*,#573,.F.);
#754=ORIENTED_EDGE('',*,*,#574,.T.);
#755=ORIENTED_EDGE('',*,*,#575,.F.);
#756=ORIENTED_EDGE('',*,*,#574,.F.);
#757=ORIENTED_EDGE('',*,*,#576,.F.);
#758=ORIENTED_EDGE('',*,*,#556,.T.);
#759=ORIENTED_EDGE('',*,*,#577,.F.);
#760=ORIENTED_EDGE('',*,*,#578,.F.);
#761=ORIENTED_EDGE('',*,*,#579,.F.);
#762=ORIENTED_EDGE('',*,*,#580,.T.);
#763=ORIENTED_EDGE('',*,*,#580,.F.);
#764=ORIENTED_EDGE('',*,*,#581,.F.);
#765=ORIENTED_EDGE('',*,*,#582,.T.);
#766=ORIENTED_EDGE('',*,*,#583,.T.);
#767=ORIENTED_EDGE('',*,*,#532,.F.);
#768=ORIENTED_EDGE('',*,*,#583,.F.);
#769=ORIENTED_EDGE('',*,*,#584,.F.);
#770=ORIENTED_EDGE('',*,*,#585,.F.);
#771=ORIENTED_EDGE('',*,*,#586,.F.);
#772=ORIENTED_EDGE('',*,*,#587,.T.);
#773=ORIENTED_EDGE('',*,*,#588,.F.);
#774=ORIENTED_EDGE('',*,*,#558,.F.);
#775=ORIENTED_EDGE('',*,*,#589,.F.);
#776=ORIENTED_EDGE('',*,*,#560,.T.);
#777=ORIENTED_EDGE('',*,*,#590,.F.);
#778=ORIENTED_EDGE('',*,*,#536,.F.);
#779=ORIENTED_EDGE('',*,*,#591,.F.);
#780=ORIENTED_EDGE('',*,*,#538,.T.);
#781=ORIENTED_EDGE('',*,*,#592,.F.);
#782=ORIENTED_EDGE('',*,*,#593,.F.);
#783=ORIENTED_EDGE('',*,*,#582,.F.);
#784=ORIENTED_EDGE('',*,*,#594,.F.);
#785=ORIENTED_EDGE('',*,*,#595,.T.);
#786=ORIENTED_EDGE('',*,*,#596,.F.);
#787=ORIENTED_EDGE('',*,*,#595,.F.);
#788=ORIENTED_EDGE('',*,*,#597,.F.);
#789=ORIENTED_EDGE('',*,*,#598,.T.);
#790=ORIENTED_EDGE('',*,*,#599,.F.);
#791=ORIENTED_EDGE('',*,*,#598,.F.);
#792=ORIENTED_EDGE('',*,*,#600,.F.);
#793=ORIENTED_EDGE('',*,*,#601,.T.);
#794=ORIENTED_EDGE('',*,*,#602,.F.);
#795=ORIENTED_EDGE('',*,*,#601,.F.);
#796=ORIENTED_EDGE('',*,*,#603,.F.);
#797=ORIENTED_EDGE('',*,*,#604,.T.);
#798=ORIENTED_EDGE('',*,*,#605,.F.);
#799=ORIENTED_EDGE('',*,*,#604,.F.);
#800=ORIENTED_EDGE('',*,*,#606,.F.);
#801=ORIENTED_EDGE('',*,*,#607,.T.);
#802=ORIENTED_EDGE('',*,*,#608,.F.);
#803=ORIENTED_EDGE('',*,*,#607,.F.);
#804=ORIENTED_EDGE('',*,*,#609,.F.);
#805=ORIENTED_EDGE('',*,*,#578,.T.);
#806=ORIENTED_EDGE('',*,*,#610,.F.);
#807=ORIENTED_EDGE('',*,*,#611,.F.);
#808=ORIENTED_EDGE('',*,*,#612,.F.);
#809=ORIENTED_EDGE('',*,*,#585,.T.);
#810=ORIENTED_EDGE('',*,*,#613,.F.);
#811=ORIENTED_EDGE('',*,*,#587,.F.);
#812=ORIENTED_EDGE('',*,*,#614,.F.);
#813=ORIENTED_EDGE('',*,*,#615,.T.);
#814=ORIENTED_EDGE('',*,*,#616,.F.);
#815=ORIENTED_EDGE('',*,*,#615,.F.);
#816=ORIENTED_EDGE('',*,*,#617,.F.);
#817=ORIENTED_EDGE('',*,*,#618,.T.);
#818=ORIENTED_EDGE('',*,*,#619,.F.);
#819=ORIENTED_EDGE('',*,*,#618,.F.);
#820=ORIENTED_EDGE('',*,*,#620,.F.);
#821=ORIENTED_EDGE('',*,*,#621,.T.);
#822=ORIENTED_EDGE('',*,*,#622,.F.);
#823=ORIENTED_EDGE('',*,*,#621,.F.);
#824=ORIENTED_EDGE('',*,*,#623,.F.);
#825=ORIENTED_EDGE('',*,*,#624,.T.);
#826=ORIENTED_EDGE('',*,*,#625,.F.);
#827=ORIENTED_EDGE('',*,*,#624,.F.);
#828=ORIENTED_EDGE('',*,*,#626,.F.);
#829=ORIENTED_EDGE('',*,*,#627,.T.);
#830=ORIENTED_EDGE('',*,*,#628,.F.);
#831=ORIENTED_EDGE('',*,*,#627,.F.);
#832=ORIENTED_EDGE('',*,*,#629,.F.);
#833=ORIENTED_EDGE('',*,*,#611,.T.);
#834=ORIENTED_EDGE('',*,*,#630,.F.);
#835=ORIENTED_EDGE('',*,*,#631,.T.);
#836=ORIENTED_EDGE('',*,*,#632,.F.);
#837=ORIENTED_EDGE('',*,*,#631,.F.);
#838=ORIENTED_EDGE('',*,*,#633,.F.);
#839=ORIENTED_EDGE('',*,*,#634,.T.);
#840=ORIENTED_EDGE('',*,*,#635,.F.);
#841=ORIENTED_EDGE('',*,*,#634,.F.);
#842=ORIENTED_EDGE('',*,*,#636,.F.);
#843=ORIENTED_EDGE('',*,*,#637,.T.);
#844=ORIENTED_EDGE('',*,*,#638,.F.);
#845=ORIENTED_EDGE('',*,*,#637,.F.);
#846=ORIENTED_EDGE('',*,*,#639,.F.);
#847=ORIENTED_EDGE('',*,*,#640,.T.);
#848=ORIENTED_EDGE('',*,*,#641,.F.);
#849=ORIENTED_EDGE('',*,*,#640,.F.);
#850=ORIENTED_EDGE('',*,*,#642,.F.);
#851=ORIENTED_EDGE('',*,*,#643,.T.);
#852=ORIENTED_EDGE('',*,*,#644,.T.);
#853=ORIENTED_EDGE('',*,*,#643,.F.);
#854=ORIENTED_EDGE('',*,*,#644,.F.);
#855=ORIENTED_EDGE('',*,*,#545,.T.);
#856=ORIENTED_EDGE('',*,*,#542,.T.);
#857=ORIENTED_EDGE('',*,*,#539,.T.);
#858=ORIENTED_EDGE('',*,*,#591,.T.);
#859=ORIENTED_EDGE('',*,*,#535,.T.);
#860=ORIENTED_EDGE('',*,*,#554,.T.);
#861=ORIENTED_EDGE('',*,*,#551,.T.);
#862=ORIENTED_EDGE('',*,*,#548,.T.);
#863=ORIENTED_EDGE('',*,*,#567,.T.);
#864=ORIENTED_EDGE('',*,*,#564,.T.);
#865=ORIENTED_EDGE('',*,*,#561,.T.);
#866=ORIENTED_EDGE('',*,*,#589,.T.);
#867=ORIENTED_EDGE('',*,*,#557,.T.);
#868=ORIENTED_EDGE('',*,*,#576,.T.);
#869=ORIENTED_EDGE('',*,*,#573,.T.);
#870=ORIENTED_EDGE('',*,*,#570,.T.);
#871=ORIENTED_EDGE('',*,*,#600,.T.);
#872=ORIENTED_EDGE('',*,*,#597,.T.);
#873=ORIENTED_EDGE('',*,*,#594,.T.);
#874=ORIENTED_EDGE('',*,*,#581,.T.);
#875=ORIENTED_EDGE('',*,*,#579,.T.);
#876=ORIENTED_EDGE('',*,*,#609,.T.);
#877=ORIENTED_EDGE('',*,*,#606,.T.);
#878=ORIENTED_EDGE('',*,*,#603,.T.);
#879=ORIENTED_EDGE('',*,*,#620,.T.);
#880=ORIENTED_EDGE('',*,*,#617,.T.);
#881=ORIENTED_EDGE('',*,*,#614,.T.);
#882=ORIENTED_EDGE('',*,*,#586,.T.);
#883=ORIENTED_EDGE('',*,*,#612,.T.);
#884=ORIENTED_EDGE('',*,*,#629,.T.);
#885=ORIENTED_EDGE('',*,*,#626,.T.);
#886=ORIENTED_EDGE('',*,*,#623,.T.);
#887=ORIENTED_EDGE('',*,*,#630,.T.);
#888=ORIENTED_EDGE('',*,*,#633,.T.);
#889=ORIENTED_EDGE('',*,*,#636,.T.);
#890=ORIENTED_EDGE('',*,*,#639,.T.);
#891=ORIENTED_EDGE('',*,*,#645,.F.);
#892=ORIENTED_EDGE('',*,*,#646,.T.);
#893=ORIENTED_EDGE('',*,*,#647,.T.);
#894=ORIENTED_EDGE('',*,*,#646,.F.);
#895=ORIENTED_EDGE('',*,*,#645,.T.);
#896=ORIENTED_EDGE('',*,*,#642,.T.);
#897=ORIENTED_EDGE('',*,*,#647,.F.);
#898=ORIENTED_EDGE('',*,*,#584,.T.);
#899=ORIENTED_EDGE('',*,*,#593,.T.);
#900=ORIENTED_EDGE('',*,*,#596,.T.);
#901=ORIENTED_EDGE('',*,*,#599,.T.);
#902=ORIENTED_EDGE('',*,*,#602,.T.);
#903=ORIENTED_EDGE('',*,*,#605,.T.);
#904=ORIENTED_EDGE('',*,*,#608,.T.);
#905=ORIENTED_EDGE('',*,*,#577,.T.);
#906=ORIENTED_EDGE('',*,*,#592,.T.);
#907=ORIENTED_EDGE('',*,*,#537,.T.);
#908=ORIENTED_EDGE('',*,*,#541,.T.);
#909=ORIENTED_EDGE('',*,*,#544,.T.);
#910=ORIENTED_EDGE('',*,*,#547,.T.);
#911=ORIENTED_EDGE('',*,*,#550,.T.);
#912=ORIENTED_EDGE('',*,*,#553,.T.);
#913=ORIENTED_EDGE('',*,*,#533,.T.);
#914=ORIENTED_EDGE('',*,*,#590,.T.);
#915=ORIENTED_EDGE('',*,*,#559,.T.);
#916=ORIENTED_EDGE('',*,*,#563,.T.);
#917=ORIENTED_EDGE('',*,*,#566,.T.);
#918=ORIENTED_EDGE('',*,*,#569,.T.);
#919=ORIENTED_EDGE('',*,*,#572,.T.);
#920=ORIENTED_EDGE('',*,*,#575,.T.);
#921=ORIENTED_EDGE('',*,*,#555,.T.);
#922=ORIENTED_EDGE('',*,*,#588,.T.);
#923=ORIENTED_EDGE('',*,*,#613,.T.);
#924=ORIENTED_EDGE('',*,*,#616,.T.);
#925=ORIENTED_EDGE('',*,*,#619,.T.);
#926=ORIENTED_EDGE('',*,*,#622,.T.);
#927=ORIENTED_EDGE('',*,*,#625,.T.);
#928=ORIENTED_EDGE('',*,*,#628,.T.);
#929=ORIENTED_EDGE('',*,*,#610,.T.);
#930=ORIENTED_EDGE('',*,*,#632,.T.);
#931=ORIENTED_EDGE('',*,*,#635,.T.);
#932=ORIENTED_EDGE('',*,*,#638,.T.);
#933=ORIENTED_EDGE('',*,*,#641,.T.);
#934=CYLINDRICAL_SURFACE('',#1039,3.25);
#935=CYLINDRICAL_SURFACE('',#1050,10.);
#936=CYLINDRICAL_SURFACE('',#1054,10.25);
#937=CYLINDRICAL_SURFACE('',#1060,3.000000000003);
#938=CYLINDRICAL_SURFACE('',#1063,3.);
#939=CYLINDRICAL_SURFACE('',#1067,3.);
#940=CYLINDRICAL_SURFACE('',#1070,21.);
#941=CYLINDRICAL_SURFACE('',#1073,3.);
#942=CYLINDRICAL_SURFACE('',#1077,3.000000000003);
#943=CYLINDRICAL_SURFACE('',#1080,3.);
#944=CYLINDRICAL_SURFACE('',#1084,3.);
#945=CYLINDRICAL_SURFACE('',#1087,21.);
#946=CYLINDRICAL_SURFACE('',#1090,3.);
#947=CYLINDRICAL_SURFACE('',#1094,3.000000000003);
#948=CYLINDRICAL_SURFACE('',#1097,13.);
#949=CYLINDRICAL_SURFACE('',#1106,3.);
#950=CYLINDRICAL_SURFACE('',#1110,3.);
#951=CYLINDRICAL_SURFACE('',#1113,21.);
#952=CYLINDRICAL_SURFACE('',#1116,3.);
#953=CYLINDRICAL_SURFACE('',#1120,3.000000000003);
#954=CYLINDRICAL_SURFACE('',#1123,3.);
#955=CYLINDRICAL_SURFACE('',#1127,3.);
#956=CYLINDRICAL_SURFACE('',#1130,21.);
#957=CYLINDRICAL_SURFACE('',#1133,3.);
#958=CYLINDRICAL_SURFACE('',#1137,2.);
#959=CYLINDRICAL_SURFACE('',#1140,2.);
#960=CYLINDRICAL_SURFACE('',#1143,2.);
#961=CYLINDRICAL_SURFACE('',#1146,2.);
#962=CYLINDRICAL_SURFACE('',#1149,22.);
#963=CYLINDRICAL_SURFACE('',#1153,40.5);
#964=ADVANCED_FACE('',(#64),#934,.F.);
#965=ADVANCED_FACE('',(#65),#42,.T.);
#966=ADVANCED_FACE('',(#66),#43,.F.);
#967=ADVANCED_FACE('',(#67),#44,.F.);
#968=ADVANCED_FACE('',(#68),#45,.F.);
#969=ADVANCED_FACE('',(#69),#46,.F.);
#970=ADVANCED_FACE('',(#70),#47,.F.);
#971=ADVANCED_FACE('',(#71),#48,.F.);
#972=ADVANCED_FACE('',(#72,#24),#49,.F.);
#973=ADVANCED_FACE('',(#73),#935,.T.);
#974=ADVANCED_FACE('',(#74,#25),#50,.T.);
#975=ADVANCED_FACE('',(#75),#936,.F.);
#976=ADVANCED_FACE('',(#76,#26),#51,.T.);
#977=ADVANCED_FACE('',(#77,#27),#52,.F.);
#978=ADVANCED_FACE('',(#78),#937,.F.);
#979=ADVANCED_FACE('',(#79),#938,.F.);
#980=ADVANCED_FACE('',(#80),#53,.F.);
#981=ADVANCED_FACE('',(#81),#939,.F.);
#982=ADVANCED_FACE('',(#82),#940,.F.);
#983=ADVANCED_FACE('',(#83),#941,.F.);
#984=ADVANCED_FACE('',(#84),#54,.F.);
#985=ADVANCED_FACE('',(#85),#942,.F.);
#986=ADVANCED_FACE('',(#86),#943,.F.);
#987=ADVANCED_FACE('',(#87),#55,.F.);
#988=ADVANCED_FACE('',(#88),#944,.F.);
#989=ADVANCED_FACE('',(#89),#945,.F.);
#990=ADVANCED_FACE('',(#90),#946,.F.);
#991=ADVANCED_FACE('',(#91),#56,.F.);
#992=ADVANCED_FACE('',(#92),#947,.F.);
#993=ADVANCED_FACE('',(#93),#948,.T.);
#994=ADVANCED_FACE('',(#94),#949,.F.);
#995=ADVANCED_FACE('',(#95),#57,.F.);
#996=ADVANCED_FACE('',(#96),#950,.F.);
#997=ADVANCED_FACE('',(#97),#951,.F.);
#998=ADVANCED_FACE('',(#98),#952,.F.);
#999=ADVANCED_FACE('',(#99),#58,.F.);
#1000=ADVANCED_FACE('',(#100),#953,.F.);
#1001=ADVANCED_FACE('',(#101),#954,.F.);
#1002=ADVANCED_FACE('',(#102),#59,.F.);
#1003=ADVANCED_FACE('',(#103),#955,.F.);
#1004=ADVANCED_FACE('',(#104),#956,.F.);
#1005=ADVANCED_FACE('',(#105),#957,.F.);
#1006=ADVANCED_FACE('',(#106),#60,.F.);
#1007=ADVANCED_FACE('',(#107),#958,.F.);
#1008=ADVANCED_FACE('',(#108),#959,.F.);
#1009=ADVANCED_FACE('',(#109),#960,.F.);
#1010=ADVANCED_FACE('',(#110),#961,.F.);
#1011=ADVANCED_FACE('',(#111),#962,.F.);
#1012=ADVANCED_FACE('',(#112,#28,#29,#30,#31,#32,#33,#34,#35),#61,.T.);
#1013=ADVANCED_FACE('',(#113),#963,.T.);
#1014=ADVANCED_FACE('',(#114,#36),#62,.T.);
#1015=ADVANCED_FACE('',(#115,#37,#38,#39,#40,#41),#63,.F.);
#1016=CLOSED_SHELL('',(#964,#965,#966,#967,#968,#969,#970,#971,#972,#973,
#974,#975,#976,#977,#978,#979,#980,#981,#982,#983,#984,#985,#986,#987,#988,
#989,#990,#991,#992,#993,#994,#995,#996,#997,#998,#999,#1000,#1001,#1002,
#1003,#1004,#1005,#1006,#1007,#1008,#1009,#1010,#1011,#1012,#1013,#1014,
#1015));
#1017=DERIVED_UNIT_ELEMENT(#1020,1.);
#1018=DERIVED_UNIT_ELEMENT(#1793,-3.);
#1019=DIMENSIONAL_EXPONENTS(0.,1.,0.,0.,0.,0.,0.);
#1020=(
CONVERSION_BASED_UNIT('gram',#1022)
MASS_UNIT()
NAMED_UNIT(#1019)
);
#1021=(
MASS_UNIT()
NAMED_UNIT(*)
SI_UNIT(.KILO.,.GRAM.)
);
#1022=MASS_MEASURE_WITH_UNIT(MASS_MEASURE(0.001),#1021);
#1023=DERIVED_UNIT((#1017,#1018));
#1024=MEASURE_REPRESENTATION_ITEM('density measure',
POSITIVE_RATIO_MEASURE(0.952),#1023);
#1025=PROPERTY_DEFINITION_REPRESENTATION(#1030,#1027);
#1026=PROPERTY_DEFINITION_REPRESENTATION(#1031,#1028);
#1027=REPRESENTATION('material name',(#1029),#1790);
#1028=REPRESENTATION('density',(#1024),#1790);
#1029=DESCRIPTIVE_REPRESENTATION_ITEM('Plastic, Opaque White',
'Plastic, Opaque White');
#1030=PROPERTY_DEFINITION('material property','material name',#1800);
#1031=PROPERTY_DEFINITION('material property','density of part',#1800);
#1032=DATE_TIME_ROLE('creation_date');
#1033=APPLIED_DATE_AND_TIME_ASSIGNMENT(#1034,#1032,(#1800));
#1034=DATE_AND_TIME(#1035,#1036);
#1035=CALENDAR_DATE(2025,12,4);
#1036=LOCAL_TIME(0,0,0.,#1037);
#1037=COORDINATED_UNIVERSAL_TIME_OFFSET(0,0,.BEHIND.);
#1038=AXIS2_PLACEMENT_3D('',#1489,#1163,#1164);
#1039=AXIS2_PLACEMENT_3D('',#1490,#1165,#1166);
#1040=AXIS2_PLACEMENT_3D('',#1492,#1167,#1168);
#1041=AXIS2_PLACEMENT_3D('',#1495,#1170,#1171);
#1042=AXIS2_PLACEMENT_3D('',#1496,#1172,#1173);
#1043=AXIS2_PLACEMENT_3D('',#1497,#1174,#1175);
#1044=AXIS2_PLACEMENT_3D('',#1506,#1180,#1181);
#1045=AXIS2_PLACEMENT_3D('',#1512,#1185,#1186);
#1046=AXIS2_PLACEMENT_3D('',#1518,#1190,#1191);
#1047=AXIS2_PLACEMENT_3D('',#1524,#1195,#1196);
#1048=AXIS2_PLACEMENT_3D('',#1530,#1200,#1201);
#1049=AXIS2_PLACEMENT_3D('',#1533,#1204,#1205);
#1050=AXIS2_PLACEMENT_3D('',#1534,#1206,#1207);
#1051=AXIS2_PLACEMENT_3D('',#1536,#1208,#1209);
#1052=AXIS2_PLACEMENT_3D('',#1539,#1211,#1212);
#1053=AXIS2_PLACEMENT_3D('',#1540,#1213,#1214);
#1054=AXIS2_PLACEMENT_3D('',#1541,#1215,#1216);
#1055=AXIS2_PLACEMENT_3D('',#1543,#1217,#1218);
#1056=AXIS2_PLACEMENT_3D('',#1546,#1220,#1221);
#1057=AXIS2_PLACEMENT_3D('',#1547,#1222,#1223);
#1058=AXIS2_PLACEMENT_3D('',#1549,#1224,#1225);
#1059=AXIS2_PLACEMENT_3D('',#1550,#1226,#1227);
#1060=AXIS2_PLACEMENT_3D('',#1551,#1228,#1229);
#1061=AXIS2_PLACEMENT_3D('',#1554,#1230,#1231);
#1062=AXIS2_PLACEMENT_3D('',#1558,#1233,#1234);
#1063=AXIS2_PLACEMENT_3D('',#1560,#1236,#1237);
#1064=AXIS2_PLACEMENT_3D('',#1563,#1238,#1239);
#1065=AXIS2_PLACEMENT_3D('',#1567,#1241,#1242);
#1066=AXIS2_PLACEMENT_3D('',#1569,#1244,#1245);
#1067=AXIS2_PLACEMENT_3D('',#1575,#1249,#1250);
#1068=AXIS2_PLACEMENT_3D('',#1577,#1251,#1252);
#1069=AXIS2_PLACEMENT_3D('',#1579,#1253,#1254);
#1070=AXIS2_PLACEMENT_3D('',#1581,#1256,#1257);
#1071=AXIS2_PLACEMENT_3D('',#1583,#1258,#1259);
#1072=AXIS2_PLACEMENT_3D('',#1585,#1260,#1261);
#1073=AXIS2_PLACEMENT_3D('',#1587,#1263,#1264);
#1074=AXIS2_PLACEMENT_3D('',#1589,#1265,#1266);
#1075=AXIS2_PLACEMENT_3D('',#1591,#1267,#1268);
#1076=AXIS2_PLACEMENT_3D('',#1593,#1270,#1271);
#1077=AXIS2_PLACEMENT_3D('',#1596,#1274,#1275);
#1078=AXIS2_PLACEMENT_3D('',#1599,#1276,#1277);
#1079=AXIS2_PLACEMENT_3D('',#1603,#1279,#1280);
#1080=AXIS2_PLACEMENT_3D('',#1605,#1282,#1283);
#1081=AXIS2_PLACEMENT_3D('',#1608,#1284,#1285);
#1082=AXIS2_PLACEMENT_3D('',#1612,#1287,#1288);
#1083=AXIS2_PLACEMENT_3D('',#1614,#1290,#1291);
#1084=AXIS2_PLACEMENT_3D('',#1620,#1295,#1296);
#1085=AXIS2_PLACEMENT_3D('',#1622,#1297,#1298);
#1086=AXIS2_PLACEMENT_3D('',#1624,#1299,#1300);
#1087=AXIS2_PLACEMENT_3D('',#1626,#1302,#1303);
#1088=AXIS2_PLACEMENT_3D('',#1628,#1304,#1305);
#1089=AXIS2_PLACEMENT_3D('',#1630,#1306,#1307);
#1090=AXIS2_PLACEMENT_3D('',#1632,#1309,#1310);
#1091=AXIS2_PLACEMENT_3D('',#1634,#1311,#1312);
#1092=AXIS2_PLACEMENT_3D('',#1636,#1313,#1314);
#1093=AXIS2_PLACEMENT_3D('',#1638,#1316,#1317);
#1094=AXIS2_PLACEMENT_3D('',#1641,#1320,#1321);
#1095=AXIS2_PLACEMENT_3D('',#1644,#1322,#1323);
#1096=AXIS2_PLACEMENT_3D('',#1648,#1325,#1326);
#1097=AXIS2_PLACEMENT_3D('',#1650,#1328,#1329);
#1098=AXIS2_PLACEMENT_3D('',#1652,#1330,#1331);
#1099=AXIS2_PLACEMENT_3D('',#1657,#1334,#1335);
#1100=AXIS2_PLACEMENT_3D('',#1661,#1337,#1338);
#1101=AXIS2_PLACEMENT_3D('',#1664,#1340,#1341);
#1102=AXIS2_PLACEMENT_3D('',#1665,#1342,#1343);
#1103=AXIS2_PLACEMENT_3D('',#1666,#1344,#1345);
#1104=AXIS2_PLACEMENT_3D('',#1667,#1346,#1347);
#1105=AXIS2_PLACEMENT_3D('',#1668,#1348,#1349);
#1106=AXIS2_PLACEMENT_3D('',#1669,#1350,#1351);
#1107=AXIS2_PLACEMENT_3D('',#1671,#1352,#1353);
#1108=AXIS2_PLACEMENT_3D('',#1673,#1354,#1355);
#1109=AXIS2_PLACEMENT_3D('',#1675,#1357,#1358);
#1110=AXIS2_PLACEMENT_3D('',#1681,#1362,#1363);
#1111=AXIS2_PLACEMENT_3D('',#1683,#1364,#1365);
#1112=AXIS2_PLACEMENT_3D('',#1685,#1366,#1367);
#1113=AXIS2_PLACEMENT_3D('',#1687,#1369,#1370);
#1114=AXIS2_PLACEMENT_3D('',#1689,#1371,#1372);
#1115=AXIS2_PLACEMENT_3D('',#1691,#1373,#1374);
#1116=AXIS2_PLACEMENT_3D('',#1693,#1376,#1377);
#1117=AXIS2_PLACEMENT_3D('',#1695,#1378,#1379);
#1118=AXIS2_PLACEMENT_3D('',#1697,#1380,#1381);
#1119=AXIS2_PLACEMENT_3D('',#1699,#1383,#1384);
#1120=AXIS2_PLACEMENT_3D('',#1702,#1387,#1388);
#1121=AXIS2_PLACEMENT_3D('',#1704,#1389,#1390);
#1122=AXIS2_PLACEMENT_3D('',#1707,#1392,#1393);
#1123=AXIS2_PLACEMENT_3D('',#1708,#1394,#1395);
#1124=AXIS2_PLACEMENT_3D('',#1710,#1396,#1397);
#1125=AXIS2_PLACEMENT_3D('',#1712,#1398,#1399);
#1126=AXIS2_PLACEMENT_3D('',#1714,#1401,#1402);
#1127=AXIS2_PLACEMENT_3D('',#1720,#1406,#1407);
#1128=AXIS2_PLACEMENT_3D('',#1722,#1408,#1409);
#1129=AXIS2_PLACEMENT_3D('',#1724,#1410,#1411);
#1130=AXIS2_PLACEMENT_3D('',#1726,#1413,#1414);
#1131=AXIS2_PLACEMENT_3D('',#1728,#1415,#1416);
#1132=AXIS2_PLACEMENT_3D('',#1730,#1417,#1418);
#1133=AXIS2_PLACEMENT_3D('',#1732,#1420,#1421);
#1134=AXIS2_PLACEMENT_3D('',#1734,#1422,#1423);
#1135=AXIS2_PLACEMENT_3D('',#1736,#1424,#1425);
#1136=AXIS2_PLACEMENT_3D('',#1738,#1427,#1428);
#1137=AXIS2_PLACEMENT_3D('',#1741,#1431,#1432);
#1138=AXIS2_PLACEMENT_3D('',#1743,#1433,#1434);
#1139=AXIS2_PLACEMENT_3D('',#1746,#1436,#1437);
#1140=AXIS2_PLACEMENT_3D('',#1747,#1438,#1439);
#1141=AXIS2_PLACEMENT_3D('',#1749,#1440,#1441);
#1142=AXIS2_PLACEMENT_3D('',#1752,#1443,#1444);
#1143=AXIS2_PLACEMENT_3D('',#1753,#1445,#1446);
#1144=AXIS2_PLACEMENT_3D('',#1755,#1447,#1448);
#1145=AXIS2_PLACEMENT_3D('',#1758,#1450,#1451);
#1146=AXIS2_PLACEMENT_3D('',#1759,#1452,#1453);
#1147=AXIS2_PLACEMENT_3D('',#1761,#1454,#1455);
#1148=AXIS2_PLACEMENT_3D('',#1764,#1457,#1458);
#1149=AXIS2_PLACEMENT_3D('',#1765,#1459,#1460);
#1150=AXIS2_PLACEMENT_3D('',#1767,#1461,#1462);
#1151=AXIS2_PLACEMENT_3D('',#1770,#1464,#1465);
#1152=AXIS2_PLACEMENT_3D('',#1771,#1466,#1467);
#1153=AXIS2_PLACEMENT_3D('',#1772,#1468,#1469);
#1154=AXIS2_PLACEMENT_3D('',#1774,#1470,#1471);
#1155=AXIS2_PLACEMENT_3D('',#1777,#1473,#1474);
#1156=AXIS2_PLACEMENT_3D('',#1778,#1475,#1476);
#1157=AXIS2_PLACEMENT_3D('',#1779,#1477,#1478);
#1158=AXIS2_PLACEMENT_3D('',#1780,#1479,#1480);
#1159=AXIS2_PLACEMENT_3D('',#1781,#1481,#1482);
#1160=AXIS2_PLACEMENT_3D('',#1782,#1483,#1484);
#1161=AXIS2_PLACEMENT_3D('',#1783,#1485,#1486);
#1162=AXIS2_PLACEMENT_3D('',#1786,#1487,#1488);
#1163=DIRECTION('axis',(0.,0.,1.));
#1164=DIRECTION('refdir',(1.,0.,0.));
#1165=DIRECTION('center_axis',(0.,0.,1.));
#1166=DIRECTION('ref_axis',(-1.,0.,0.));
#1167=DIRECTION('center_axis',(0.,0.,1.));
#1168=DIRECTION('ref_axis',(-1.,0.,0.));
#1169=DIRECTION('',(0.,0.,1.));
#1170=DIRECTION('center_axis',(0.,0.,1.));
#1171=DIRECTION('ref_axis',(-1.,0.,0.));
#1172=DIRECTION('center_axis',(0.,0.,-1.));
#1173=DIRECTION('ref_axis',(-1.,0.,0.));
#1174=DIRECTION('center_axis',(0.5,-0.866025403784439,0.));
#1175=DIRECTION('ref_axis',(0.866025403784439,0.5,0.));
#1176=DIRECTION('',(0.866025403784439,0.5,0.));
#1177=DIRECTION('',(0.,0.,1.));
#1178=DIRECTION('',(0.866025403784439,0.5,0.));
#1179=DIRECTION('',(0.,0.,1.));
#1180=DIRECTION('center_axis',(-0.5,-0.866025403784439,0.));
#1181=DIRECTION('ref_axis',(0.866025403784438,-0.5,0.));
#1182=DIRECTION('',(0.866025403784438,-0.5,0.));
#1183=DIRECTION('',(0.,0.,1.));
#1184=DIRECTION('',(0.866025403784438,-0.5,0.));
#1185=DIRECTION('center_axis',(-1.,1.67214146642049E-16,0.));
#1186=DIRECTION('ref_axis',(-1.67214146642049E-16,-1.,0.));
#1187=DIRECTION('',(-1.67214146642049E-16,-1.,0.));
#1188=DIRECTION('',(0.,0.,1.));
#1189=DIRECTION('',(-1.67214146642049E-16,-1.,0.));
#1190=DIRECTION('center_axis',(-0.5,0.866025403784439,0.));
#1191=DIRECTION('ref_axis',(-0.866025403784439,-0.5,0.));
#1192=DIRECTION('',(-0.866025403784439,-0.5,0.));
#1193=DIRECTION('',(0.,0.,1.));
#1194=DIRECTION('',(-0.866025403784439,-0.5,0.));
#1195=DIRECTION('center_axis',(0.500000000000001,0.866025403784438,0.));
#1196=DIRECTION('ref_axis',(-0.866025403784438,0.500000000000001,0.));
#1197=DIRECTION('',(-0.866025403784438,0.500000000000001,0.));
#1198=DIRECTION('',(0.,0.,1.));
#1199=DIRECTION('',(-0.866025403784438,0.500000000000001,0.));
#1200=DIRECTION('center_axis',(1.,-5.01642439926147E-16,0.));
#1201=DIRECTION('ref_axis',(5.01642439926147E-16,1.,0.));
#1202=DIRECTION('',(5.01642439926147E-16,1.,0.));
#1203=DIRECTION('',(5.01642439926147E-16,1.,0.));
#1204=DIRECTION('center_axis',(0.,0.,1.));
#1205=DIRECTION('ref_axis',(1.,0.,0.));
#1206=DIRECTION('center_axis',(0.,0.,-1.));
#1207=DIRECTION('ref_axis',(-1.,0.,0.));
#1208=DIRECTION('center_axis',(0.,0.,-1.));
#1209=DIRECTION('ref_axis',(-1.,0.,0.));
#1210=DIRECTION('',(0.,0.,1.));
#1211=DIRECTION('center_axis',(0.,0.,1.));
#1212=DIRECTION('ref_axis',(-1.,0.,0.));
#1213=DIRECTION('center_axis',(0.,0.,-1.));
#1214=DIRECTION('ref_axis',(-1.,0.,0.));
#1215=DIRECTION('center_axis',(0.,0.,-1.));
#1216=DIRECTION('ref_axis',(1.,0.,0.));
#1217=DIRECTION('center_axis',(0.,0.,1.));
#1218=DIRECTION('ref_axis',(1.,0.,0.));
#1219=DIRECTION('',(0.,0.,1.));
#1220=DIRECTION('center_axis',(0.,0.,-1.));
#1221=DIRECTION('ref_axis',(1.,0.,0.));
#1222=DIRECTION('center_axis',(0.,0.,-1.));
#1223=DIRECTION('ref_axis',(-1.,0.,0.));
#1224=DIRECTION('center_axis',(0.,0.,-1.));
#1225=DIRECTION('ref_axis',(-1.,0.,0.));
#1226=DIRECTION('center_axis',(0.,0.,1.));
#1227=DIRECTION('ref_axis',(1.,0.,0.));
#1228=DIRECTION('center_axis',(0.,0.,-1.));
#1229=DIRECTION('ref_axis',(-1.48099310592749E-9,1.,0.));
#1230=DIRECTION('center_axis',(0.,0.,1.));
#1231=DIRECTION('ref_axis',(-1.48099310592749E-9,1.,0.));
#1232=DIRECTION('',(0.,0.,-1.));
#1233=DIRECTION('center_axis',(0.,0.,-1.));
#1234=DIRECTION('ref_axis',(-1.48099310592749E-9,1.,0.));
#1235=DIRECTION('',(0.,0.,-1.));
#1236=DIRECTION('center_axis',(0.,0.,-1.));
#1237=DIRECTION('ref_axis',(-0.46874998520139,0.883330884421968,0.));
#1238=DIRECTION('center_axis',(0.,0.,1.));
#1239=DIRECTION('ref_axis',(-0.46874998520139,0.883330884421968,0.));
#1240=DIRECTION('',(0.,0.,-1.));
#1241=DIRECTION('center_axis',(0.,0.,-1.));
#1242=DIRECTION('ref_axis',(-0.46874998520139,0.883330884421968,0.));
#1243=DIRECTION('',(0.,0.,-1.));
#1244=DIRECTION('center_axis',(-1.,4.58633519195541E-10,0.));
#1245=DIRECTION('ref_axis',(4.58633519195541E-10,1.,0.));
#1246=DIRECTION('',(-4.58633519195541E-10,-1.,0.));
#1247=DIRECTION('',(4.58633519195541E-10,1.,0.));
#1248=DIRECTION('',(0.,0.,-1.));
#1249=DIRECTION('center_axis',(0.,0.,-1.));
#1250=DIRECTION('ref_axis',(-1.,1.01504367873891E-8,0.));
#1251=DIRECTION('center_axis',(0.,0.,1.));
#1252=DIRECTION('ref_axis',(-1.,1.01504367873891E-8,0.));
#1253=DIRECTION('center_axis',(0.,0.,-1.));
#1254=DIRECTION('ref_axis',(-1.,1.01504367873891E-8,0.));
#1255=DIRECTION('',(0.,0.,-1.));
#1256=DIRECTION('center_axis',(0.,0.,-1.));
#1257=DIRECTION('ref_axis',(0.416668114465462,-0.909058679287425,0.));
#1258=DIRECTION('center_axis',(0.,0.,1.));
#1259=DIRECTION('ref_axis',(0.416668114465462,-0.909058679287425,0.));
#1260=DIRECTION('center_axis',(0.,0.,-1.));
#1261=DIRECTION('ref_axis',(0.416668114465462,-0.909058679287425,0.));
#1262=DIRECTION('',(0.,0.,-1.));
#1263=DIRECTION('center_axis',(0.,0.,-1.));
#1264=DIRECTION('ref_axis',(0.90905708135975,-0.41667160069975,0.));
#1265=DIRECTION('center_axis',(0.,0.,1.));
#1266=DIRECTION('ref_axis',(0.90905708135975,-0.41667160069975,0.));
#1267=DIRECTION('center_axis',(0.,0.,-1.));
#1268=DIRECTION('ref_axis',(0.90905708135975,-0.41667160069975,0.));
#1269=DIRECTION('',(0.,0.,-1.));
#1270=DIRECTION('center_axis',(2.63094985021474E-10,1.,0.));
#1271=DIRECTION('ref_axis',(1.,-2.63094985021474E-10,0.));
#1272=DIRECTION('',(-1.,2.63094985021474E-10,0.));
#1273=DIRECTION('',(1.,-2.63094985021474E-10,0.));
#1274=DIRECTION('center_axis',(0.,0.,-1.));
#1275=DIRECTION('ref_axis',(-1.,-1.48099236577881E-9,0.));
#1276=DIRECTION('center_axis',(0.,0.,1.));
#1277=DIRECTION('ref_axis',(-1.,-1.48099236577881E-9,0.));
#1278=DIRECTION('',(0.,0.,-1.));
#1279=DIRECTION('center_axis',(0.,0.,-1.));
#1280=DIRECTION('ref_axis',(-1.,-1.48099236577881E-9,0.));
#1281=DIRECTION('',(0.,0.,-1.));
#1282=DIRECTION('center_axis',(0.,0.,-1.));
#1283=DIRECTION('ref_axis',(-0.883330884421968,-0.46874998520139,0.));
#1284=DIRECTION('center_axis',(0.,0.,1.));
#1285=DIRECTION('ref_axis',(-0.883330884421968,-0.46874998520139,0.));
#1286=DIRECTION('',(0.,0.,-1.));
#1287=DIRECTION('center_axis',(0.,0.,-1.));
#1288=DIRECTION('ref_axis',(-0.883330884421968,-0.46874998520139,0.));
#1289=DIRECTION('',(0.,0.,-1.));
#1290=DIRECTION('center_axis',(-4.58633270241404E-10,-1.,0.));
#1291=DIRECTION('ref_axis',(-1.,4.58633270241404E-10,0.));
#1292=DIRECTION('',(1.,-4.58633270241404E-10,0.));
#1293=DIRECTION('',(-1.,4.58633270241404E-10,0.));
#1294=DIRECTION('',(0.,0.,-1.));
#1295=DIRECTION('center_axis',(0.,0.,-1.));
#1296=DIRECTION('ref_axis',(-1.01504375275378E-8,-1.,0.));
#1297=DIRECTION('center_axis',(0.,0.,1.));
#1298=DIRECTION('ref_axis',(-1.01504375275378E-8,-1.,0.));
#1299=DIRECTION('center_axis',(0.,0.,-1.));
#1300=DIRECTION('ref_axis',(-1.01504375275378E-8,-1.,0.));
#1301=DIRECTION('',(0.,0.,-1.));
#1302=DIRECTION('center_axis',(0.,0.,-1.));
#1303=DIRECTION('ref_axis',(0.909058679285987,0.416668114468599,0.));
#1304=DIRECTION('center_axis',(0.,0.,1.));
#1305=DIRECTION('ref_axis',(0.909058679285987,0.416668114468599,0.));
#1306=DIRECTION('center_axis',(0.,0.,-1.));
#1307=DIRECTION('ref_axis',(0.909058679285987,0.416668114468599,0.));
#1308=DIRECTION('',(0.,0.,-1.));
#1309=DIRECTION('center_axis',(0.,0.,-1.));
#1310=DIRECTION('ref_axis',(0.41667160069975,0.90905708135975,0.));
#1311=DIRECTION('center_axis',(0.,0.,1.));
#1312=DIRECTION('ref_axis',(0.41667160069975,0.90905708135975,0.));
#1313=DIRECTION('center_axis',(0.,0.,-1.));
#1314=DIRECTION('ref_axis',(0.41667160069975,0.90905708135975,0.));
#1315=DIRECTION('',(0.,0.,-1.));
#1316=DIRECTION('center_axis',(-1.,2.63094736067333E-10,0.));
#1317=DIRECTION('ref_axis',(2.63094736067333E-10,1.,0.));
#1318=DIRECTION('',(-2.63094736067333E-10,-1.,0.));
#1319=DIRECTION('',(2.63094736067333E-10,1.,0.));
#1320=DIRECTION('center_axis',(0.,0.,-1.));
#1321=DIRECTION('ref_axis',(1.,1.48099310592749E-9,0.));
#1322=DIRECTION('center_axis',(0.,0.,1.));
#1323=DIRECTION('ref_axis',(1.,1.48099310592749E-9,0.));
#1324=DIRECTION('',(0.,0.,-1.));
#1325=DIRECTION('center_axis',(0.,0.,-1.));
#1326=DIRECTION('ref_axis',(1.,1.48099310592749E-9,0.));
#1327=DIRECTION('',(0.,0.,-1.));
#1328=DIRECTION('center_axis',(0.,0.,-1.));
#1329=DIRECTION('ref_axis',(0.883330874756693,0.468750003415014,0.));
#1330=DIRECTION('center_axis',(0.,0.,1.));
#1331=DIRECTION('ref_axis',(0.883330874756693,0.468750003415014,0.));
#1332=DIRECTION('',(0.,0.,-1.));
#1333=DIRECTION('',(0.,0.,-1.));
#1334=DIRECTION('center_axis',(0.,0.,1.));
#1335=DIRECTION('ref_axis',(-1.,0.,0.));
#1336=DIRECTION('',(0.,0.,-1.));
#1337=DIRECTION('center_axis',(0.,0.,1.));
#1338=DIRECTION('ref_axis',(0.468750003415014,-0.883330874756693,0.));
#1339=DIRECTION('',(0.,0.,-1.));
#1340=DIRECTION('center_axis',(0.,0.,1.));
#1341=DIRECTION('ref_axis',(-1.,0.,0.));
#1342=DIRECTION('center_axis',(0.,0.,1.));
#1343=DIRECTION('ref_axis',(-0.883330874756693,-0.468750003415014,0.));
#1344=DIRECTION('center_axis',(0.,0.,1.));
#1345=DIRECTION('ref_axis',(-1.,0.,0.));
#1346=DIRECTION('center_axis',(0.,0.,1.));
#1347=DIRECTION('ref_axis',(-0.468750003415014,0.883330874756693,0.));
#1348=DIRECTION('center_axis',(0.,0.,1.));
#1349=DIRECTION('ref_axis',(-1.,0.,0.));
#1350=DIRECTION('center_axis',(0.,0.,-1.));
#1351=DIRECTION('ref_axis',(0.883330884421968,0.46874998520139,0.));
#1352=DIRECTION('center_axis',(0.,0.,1.));
#1353=DIRECTION('ref_axis',(0.883330884421968,0.46874998520139,0.));
#1354=DIRECTION('center_axis',(0.,0.,-1.));
#1355=DIRECTION('ref_axis',(0.883330884421968,0.46874998520139,0.));
#1356=DIRECTION('',(0.,0.,-1.));
#1357=DIRECTION('center_axis',(4.58633270241404E-10,1.,0.));
#1358=DIRECTION('ref_axis',(1.,-4.58633270241404E-10,0.));
#1359=DIRECTION('',(-1.,4.58633270241404E-10,0.));
#1360=DIRECTION('',(1.,-4.58633270241404E-10,0.));
#1361=DIRECTION('',(0.,0.,-1.));
#1362=DIRECTION('center_axis',(0.,0.,-1.));
#1363=DIRECTION('ref_axis',(1.01504367873891E-8,1.,0.));
#1364=DIRECTION('center_axis',(0.,0.,1.));
#1365=DIRECTION('ref_axis',(1.01504367873891E-8,1.,0.));
#1366=DIRECTION('center_axis',(0.,0.,-1.));
#1367=DIRECTION('ref_axis',(1.01504367873891E-8,1.,0.));
#1368=DIRECTION('',(0.,0.,-1.));
#1369=DIRECTION('center_axis',(0.,0.,-1.));
#1370=DIRECTION('ref_axis',(-0.909058679273581,-0.416668114495666,0.));
#1371=DIRECTION('center_axis',(0.,0.,1.));
#1372=DIRECTION('ref_axis',(-0.909058679273581,-0.416668114495666,0.));
#1373=DIRECTION('center_axis',(0.,0.,-1.));
#1374=DIRECTION('ref_axis',(-0.909058679273581,-0.416668114495666,0.));
#1375=DIRECTION('',(0.,0.,-1.));
#1376=DIRECTION('center_axis',(0.,0.,-1.));
#1377=DIRECTION('ref_axis',(-0.41667160069975,-0.90905708135975,0.));
#1378=DIRECTION('center_axis',(0.,0.,1.));
#1379=DIRECTION('ref_axis',(-0.41667160069975,-0.90905708135975,0.));
#1380=DIRECTION('center_axis',(0.,0.,-1.));
#1381=DIRECTION('ref_axis',(-0.41667160069975,-0.90905708135975,0.));
#1382=DIRECTION('',(0.,0.,-1.));
#1383=DIRECTION('center_axis',(1.,-2.63094736067333E-10,0.));
#1384=DIRECTION('ref_axis',(-2.63094736067333E-10,-1.,0.));
#1385=DIRECTION('',(2.63094736067333E-10,1.,0.));
#1386=DIRECTION('',(-2.63094736067333E-10,-1.,0.));
#1387=DIRECTION('center_axis',(0.,0.,-1.));
#1388=DIRECTION('ref_axis',(1.48099310592749E-9,-1.,0.));
#1389=DIRECTION('center_axis',(0.,0.,1.));
#1390=DIRECTION('ref_axis',(1.48099310592749E-9,-1.,0.));
#1391=DIRECTION('',(0.,0.,-1.));
#1392=DIRECTION('center_axis',(0.,0.,-1.));
#1393=DIRECTION('ref_axis',(1.48099310592749E-9,-1.,0.));
#1394=DIRECTION('center_axis',(0.,0.,-1.));
#1395=DIRECTION('ref_axis',(0.46874998520139,-0.883330884421968,0.));
#1396=DIRECTION('center_axis',(0.,0.,1.));
#1397=DIRECTION('ref_axis',(0.46874998520139,-0.883330884421968,0.));
#1398=DIRECTION('center_axis',(0.,0.,-1.));
#1399=DIRECTION('ref_axis',(0.46874998520139,-0.883330884421968,0.));
#1400=DIRECTION('',(0.,0.,-1.));
#1401=DIRECTION('center_axis',(1.,-4.58633270241404E-10,0.));
#1402=DIRECTION('ref_axis',(-4.58633270241404E-10,-1.,0.));
#1403=DIRECTION('',(4.58633270241404E-10,1.,0.));
#1404=DIRECTION('',(-4.58633270241404E-10,-1.,0.));
#1405=DIRECTION('',(0.,0.,-1.));
#1406=DIRECTION('center_axis',(0.,0.,-1.));
#1407=DIRECTION('ref_axis',(1.,-1.01504367873891E-8,0.));
#1408=DIRECTION('center_axis',(0.,0.,1.));
#1409=DIRECTION('ref_axis',(1.,-1.01504367873891E-8,0.));
#1410=DIRECTION('center_axis',(0.,0.,-1.));
#1411=DIRECTION('ref_axis',(1.,-1.01504367873891E-8,0.));
#1412=DIRECTION('',(0.,0.,-1.));
#1413=DIRECTION('center_axis',(0.,0.,-1.));
#1414=DIRECTION('ref_axis',(-0.416668114498804,0.909058679272142,0.));
#1415=DIRECTION('center_axis',(0.,0.,1.));
#1416=DIRECTION('ref_axis',(-0.416668114498804,0.909058679272142,0.));
#1417=DIRECTION('center_axis',(0.,0.,-1.));
#1418=DIRECTION('ref_axis',(-0.416668114498804,0.909058679272142,0.));
#1419=DIRECTION('',(0.,0.,-1.));
#1420=DIRECTION('center_axis',(0.,0.,-1.));
#1421=DIRECTION('ref_axis',(-0.90905708135975,0.41667160069975,0.));
#1422=DIRECTION('center_axis',(0.,0.,1.));
#1423=DIRECTION('ref_axis',(-0.90905708135975,0.41667160069975,0.));
#1424=DIRECTION('center_axis',(0.,0.,-1.));
#1425=DIRECTION('ref_axis',(-0.90905708135975,0.41667160069975,0.));
#1426=DIRECTION('',(0.,0.,-1.));
#1427=DIRECTION('center_axis',(-2.63094736067333E-10,-1.,0.));
#1428=DIRECTION('ref_axis',(-1.,2.63094736067333E-10,0.));
#1429=DIRECTION('',(1.,-2.63094736067333E-10,0.));
#1430=DIRECTION('',(-1.,2.63094736067333E-10,0.));
#1431=DIRECTION('center_axis',(0.,0.,-1.));
#1432=DIRECTION('ref_axis',(1.,0.,0.));
#1433=DIRECTION('center_axis',(0.,0.,-1.));
#1434=DIRECTION('ref_axis',(1.,0.,0.));
#1435=DIRECTION('',(0.,0.,-1.));
#1436=DIRECTION('center_axis',(0.,0.,1.));
#1437=DIRECTION('ref_axis',(1.,0.,0.));
#1438=DIRECTION('center_axis',(0.,0.,-1.));
#1439=DIRECTION('ref_axis',(1.,0.,0.));
#1440=DIRECTION('center_axis',(0.,0.,-1.));
#1441=DIRECTION('ref_axis',(1.,0.,0.));
#1442=DIRECTION('',(0.,0.,-1.));
#1443=DIRECTION('center_axis',(0.,0.,1.));
#1444=DIRECTION('ref_axis',(1.,0.,0.));
#1445=DIRECTION('center_axis',(0.,0.,-1.));
#1446=DIRECTION('ref_axis',(1.,0.,0.));
#1447=DIRECTION('center_axis',(0.,0.,-1.));
#1448=DIRECTION('ref_axis',(1.,0.,0.));
#1449=DIRECTION('',(0.,0.,-1.));
#1450=DIRECTION('center_axis',(0.,0.,1.));
#1451=DIRECTION('ref_axis',(1.,0.,0.));
#1452=DIRECTION('center_axis',(0.,0.,-1.));
#1453=DIRECTION('ref_axis',(1.,0.,0.));
#1454=DIRECTION('center_axis',(0.,0.,-1.));
#1455=DIRECTION('ref_axis',(1.,0.,0.));
#1456=DIRECTION('',(0.,0.,-1.));
#1457=DIRECTION('center_axis',(0.,0.,1.));
#1458=DIRECTION('ref_axis',(1.,0.,0.));
#1459=DIRECTION('center_axis',(0.,0.,-1.));
#1460=DIRECTION('ref_axis',(1.,0.,0.));
#1461=DIRECTION('center_axis',(0.,0.,-1.));
#1462=DIRECTION('ref_axis',(1.,0.,0.));
#1463=DIRECTION('',(0.,0.,-1.));
#1464=DIRECTION('center_axis',(0.,0.,-1.));
#1465=DIRECTION('ref_axis',(1.,0.,0.));
#1466=DIRECTION('center_axis',(0.,0.,1.));
#1467=DIRECTION('ref_axis',(1.,0.,0.));
#1468=DIRECTION('center_axis',(0.,0.,1.));
#1469=DIRECTION('ref_axis',(1.,0.,0.));
#1470=DIRECTION('center_axis',(0.,0.,1.));
#1471=DIRECTION('ref_axis',(1.,0.,0.));
#1472=DIRECTION('',(0.,0.,-1.));
#1473=DIRECTION('center_axis',(0.,0.,1.));
#1474=DIRECTION('ref_axis',(1.,0.,0.));
#1475=DIRECTION('center_axis',(0.,0.,1.));
#1476=DIRECTION('ref_axis',(1.,0.,0.));
#1477=DIRECTION('center_axis',(0.,0.,1.));
#1478=DIRECTION('ref_axis',(1.,0.,0.));
#1479=DIRECTION('center_axis',(0.,0.,-1.));
#1480=DIRECTION('ref_axis',(-1.,0.,0.));
#1481=DIRECTION('center_axis',(0.,0.,-1.));
#1482=DIRECTION('ref_axis',(-1.,0.,0.));
#1483=DIRECTION('center_axis',(0.,0.,-1.));
#1484=DIRECTION('ref_axis',(-1.,0.,0.));
#1485=DIRECTION('center_axis',(0.,0.,-1.));
#1486=DIRECTION('ref_axis',(-1.,0.,0.));
#1487=DIRECTION('center_axis',(0.,0.,-1.));
#1488=DIRECTION('ref_axis',(-1.,0.,0.));
#1489=CARTESIAN_POINT('',(0.,0.,0.));
#1490=CARTESIAN_POINT('Origin',(0.,0.,-60.));
#1491=CARTESIAN_POINT('',(3.25,3.9801020972289E-16,-60.));
#1492=CARTESIAN_POINT('Origin',(0.,0.,-60.));
#1493=CARTESIAN_POINT('',(3.25,3.9801020972289E-16,-35.));
#1494=CARTESIAN_POINT('',(3.25,3.9801020972289E-16,-60.));
#1495=CARTESIAN_POINT('Origin',(0.,0.,-35.));
#1496=CARTESIAN_POINT('Origin',(0.,0.,-35.));
#1497=CARTESIAN_POINT('Origin',(-3.33066907387547E-15,-6.6395280956807,
-70.));
#1498=CARTESIAN_POINT('',(-2.73427161035182E-15,-6.6395280956807,-70.));
#1499=CARTESIAN_POINT('',(5.75,-3.31976404784035,-70.));
#1500=CARTESIAN_POINT('',(1.4375,-5.80958708372061,-70.));
#1501=CARTESIAN_POINT('',(-2.22044604925031E-15,-6.6395280956807,-60.));
#1502=CARTESIAN_POINT('',(-2.73427161035182E-15,-6.6395280956807,-70.));
#1503=CARTESIAN_POINT('',(5.75,-3.31976404784035,-60.));
#1504=CARTESIAN_POINT('',(5.75,-3.31976404784035,-60.));
#1505=CARTESIAN_POINT('',(5.75,-3.31976404784035,-70.));
#1506=CARTESIAN_POINT('Origin',(-5.75,-3.31976404784035,-70.));
#1507=CARTESIAN_POINT('',(-5.75,-3.31976404784035,-70.));
#1508=CARTESIAN_POINT('',(-4.31249999999999,-4.14970505980044,-70.));
#1509=CARTESIAN_POINT('',(-5.75,-3.31976404784035,-60.));
#1510=CARTESIAN_POINT('',(-5.75,-3.31976404784035,-70.));
#1511=CARTESIAN_POINT('',(-2.22044604925031E-15,-6.6395280956807,-60.));
#1512=CARTESIAN_POINT('Origin',(-5.75,3.31976404784035,-70.));
#1513=CARTESIAN_POINT('',(-5.75,3.31976404784035,-70.));
#1514=CARTESIAN_POINT('',(-5.75,1.65988202392016,-70.));
#1515=CARTESIAN_POINT('',(-5.75,3.31976404784035,-60.));
#1516=CARTESIAN_POINT('',(-5.75,3.31976404784035,-70.));
#1517=CARTESIAN_POINT('',(-5.75,-3.31976404784035,-60.));
#1518=CARTESIAN_POINT('Origin',(4.44089209850063E-15,6.6395280956807,-70.));
#1519=CARTESIAN_POINT('',(4.5383840253677E-15,6.6395280956807,-70.));
#1520=CARTESIAN_POINT('',(-1.4375,5.80958708372061,-70.));
#1521=CARTESIAN_POINT('',(4.44089209850063E-15,6.6395280956807,-60.));
#1522=CARTESIAN_POINT('',(4.5383840253677E-15,6.6395280956807,-70.));
#1523=CARTESIAN_POINT('',(-5.75,3.31976404784035,-60.));
#1524=CARTESIAN_POINT('Origin',(5.75,3.31976404784035,-70.));
#1525=CARTESIAN_POINT('',(5.75,3.31976404784035,-70.));
#1526=CARTESIAN_POINT('',(4.31250000000002,4.14970505980043,-70.));
#1527=CARTESIAN_POINT('',(5.75,3.31976404784035,-60.));
#1528=CARTESIAN_POINT('',(5.75,3.31976404784035,-70.));
#1529=CARTESIAN_POINT('',(4.44089209850063E-15,6.6395280956807,-60.));
#1530=CARTESIAN_POINT('Origin',(5.75,-3.31976404784035,-70.));
#1531=CARTESIAN_POINT('',(5.75,-1.6598820239202,-70.));
#1532=CARTESIAN_POINT('',(5.75,3.31976404784035,-60.));
#1533=CARTESIAN_POINT('Origin',(1.11022302462516E-15,0.,-60.));
#1534=CARTESIAN_POINT('Origin',(1.77635683940025E-14,-3.5527136788005E-14,
0.));
#1535=CARTESIAN_POINT('',(10.,-3.67517835871524E-14,-70.));
#1536=CARTESIAN_POINT('Origin',(1.77635683940025E-14,-3.5527136788005E-14,
-70.));
#1537=CARTESIAN_POINT('',(10.,-3.67517835871524E-14,0.));
#1538=CARTESIAN_POINT('',(10.,-3.67517835871524E-14,0.));
#1539=CARTESIAN_POINT('Origin',(1.77635683940025E-14,-3.5527136788005E-14,
0.));
#1540=CARTESIAN_POINT('Origin',(1.77635683940025E-14,-3.5527136788005E-14,
-70.));
#1541=CARTESIAN_POINT('Origin',(1.77635683940025E-14,-3.5527136788005E-14,
0.));
#1542=CARTESIAN_POINT('',(-10.25,-3.4271873818879E-14,-75.2375));
#1543=CARTESIAN_POINT('Origin',(1.77635683940025E-14,-3.5527136788005E-14,
-75.2375));
#1544=CARTESIAN_POINT('',(-10.25,-3.4271873818879E-14,0.));
#1545=CARTESIAN_POINT('',(-10.25,-3.4271873818879E-14,0.));
#1546=CARTESIAN_POINT('Origin',(1.77635683940025E-14,-3.5527136788005E-14,
0.));
#1547=CARTESIAN_POINT('Origin',(1.77635683940025E-14,-3.5527136788005E-14,
-75.2375));
#1548=CARTESIAN_POINT('',(-11.483301371837,-6.09375004439518,-75.2375));
#1549=CARTESIAN_POINT('Origin',(1.77635683940025E-14,-3.5527136788005E-14,
-75.2375));
#1550=CARTESIAN_POINT('Origin',(0.,0.,0.));
#1551=CARTESIAN_POINT('Origin',(14.1332940251051,-7.50000000000167,5.));
#1552=CARTESIAN_POINT('',(14.1332940206621,-4.49999999999866,0.));
#1553=CARTESIAN_POINT('',(11.4833013930798,-6.09375000436442,0.));
#1554=CARTESIAN_POINT('Origin',(14.1332940251051,-7.50000000000167,0.));
#1555=CARTESIAN_POINT('',(14.1332940206621,-4.49999999999866,5.));
#1556=CARTESIAN_POINT('',(14.1332940206621,-4.49999999999866,5.));
#1557=CARTESIAN_POINT('',(11.4833013930798,-6.09375000436442,5.));
#1558=CARTESIAN_POINT('Origin',(14.1332940251051,-7.50000000000167,5.));
#1559=CARTESIAN_POINT('',(11.4833013930798,-6.09375000436442,5.));
#1560=CARTESIAN_POINT('Origin',(7.49999999999935,-14.1332940251029,5.));
#1561=CARTESIAN_POINT('',(6.09375004439518,-11.483301371837,0.));
#1562=CARTESIAN_POINT('',(4.49999999999935,-14.1332939442423,0.));
#1563=CARTESIAN_POINT('Origin',(7.49999999999935,-14.1332940251029,0.));
#1564=CARTESIAN_POINT('',(6.09375004439518,-11.483301371837,5.));
#1565=CARTESIAN_POINT('',(6.09375004439518,-11.483301371837,5.));
#1566=CARTESIAN_POINT('',(4.49999999999935,-14.1332939442423,5.));
#1567=CARTESIAN_POINT('Origin',(7.49999999999935,-14.1332940251029,5.));
#1568=CARTESIAN_POINT('',(4.49999999999935,-14.1332939442423,5.));
#1569=CARTESIAN_POINT('Origin',(4.4999999989767,-16.363068142491,5.));
#1570=CARTESIAN_POINT('',(4.4999999989767,-16.363068142491,0.));
#1571=CARTESIAN_POINT('',(4.50000000272903,-8.18153407227743,0.));
#1572=CARTESIAN_POINT('',(4.4999999989767,-16.363068142491,5.));
#1573=CARTESIAN_POINT('',(4.50000000272903,-8.18153407227743,5.));
#1574=CARTESIAN_POINT('',(4.4999999989767,-16.363068142491,5.));
#1575=CARTESIAN_POINT('Origin',(7.4999999989767,-16.3630681729423,5.));
#1576=CARTESIAN_POINT('',(8.75003040425505,-19.0902322651597,0.));
#1577=CARTESIAN_POINT('Origin',(7.4999999989767,-16.3630681729423,0.));
#1578=CARTESIAN_POINT('',(8.75003040425505,-19.0902322651597,5.));
#1579=CARTESIAN_POINT('Origin',(7.4999999989767,-16.3630681729423,5.));
#1580=CARTESIAN_POINT('',(8.75003040425505,-19.0902322651597,5.));
#1581=CARTESIAN_POINT('Origin',(2.19833040659978E-10,4.44662084930769E-10,
5.));
#1582=CARTESIAN_POINT('',(19.0902394157902,-8.75001480268456,0.));
#1583=CARTESIAN_POINT('Origin',(2.19833040659978E-10,4.44662084930769E-10,
0.));
#1584=CARTESIAN_POINT('',(19.0902394157902,-8.75001480268456,5.));
#1585=CARTESIAN_POINT('Origin',(2.19833040659978E-10,4.44662084930769E-10,
5.));
#1586=CARTESIAN_POINT('',(19.0902394157902,-8.75001480268456,5.));
#1587=CARTESIAN_POINT('Origin',(16.3630681717109,-7.50000000058531,5.));
#1588=CARTESIAN_POINT('',(16.3630681886325,-4.50000000058531,0.));
#1589=CARTESIAN_POINT('Origin',(16.3630681717109,-7.50000000058531,0.));
#1590=CARTESIAN_POINT('',(16.3630681886325,-4.50000000058531,5.));
#1591=CARTESIAN_POINT('Origin',(16.3630681717109,-7.50000000058531,5.));
#1592=CARTESIAN_POINT('',(16.3630681886325,-4.50000000058531,5.));
#1593=CARTESIAN_POINT('Origin',(14.1332940206621,-4.49999999999866,5.));
#1594=CARTESIAN_POINT('',(7.06664700973909,-4.49999999813947,0.));
#1595=CARTESIAN_POINT('',(7.06664700973909,-4.49999999813947,5.));
#1596=CARTESIAN_POINT('Origin',(7.50000000000167,14.1332940251051,5.));
#1597=CARTESIAN_POINT('',(4.49999999999867,14.1332940206621,0.));
#1598=CARTESIAN_POINT('',(6.09375000436442,11.4833013930798,0.));
#1599=CARTESIAN_POINT('Origin',(7.50000000000167,14.1332940251051,0.));
#1600=CARTESIAN_POINT('',(4.49999999999867,14.1332940206621,5.));
#1601=CARTESIAN_POINT('',(4.49999999999867,14.1332940206621,5.));
#1602=CARTESIAN_POINT('',(6.09375000436442,11.4833013930798,5.));
#1603=CARTESIAN_POINT('Origin',(7.50000000000167,14.1332940251051,5.));
#1604=CARTESIAN_POINT('',(6.09375000436442,11.4833013930798,5.));
#1605=CARTESIAN_POINT('Origin',(14.1332940251029,7.49999999999935,5.));
#1606=CARTESIAN_POINT('',(11.483301371837,6.09375004439518,0.));
#1607=CARTESIAN_POINT('',(14.1332939442423,4.49999999999935,0.));
#1608=CARTESIAN_POINT('Origin',(14.1332940251029,7.49999999999935,0.));
#1609=CARTESIAN_POINT('',(11.483301371837,6.09375004439518,5.));
#1610=CARTESIAN_POINT('',(11.483301371837,6.09375004439518,5.));
#1611=CARTESIAN_POINT('',(14.1332939442423,4.49999999999935,5.));
#1612=CARTESIAN_POINT('Origin',(14.1332940251029,7.49999999999935,5.));
#1613=CARTESIAN_POINT('',(14.1332939442423,4.49999999999935,5.));
#1614=CARTESIAN_POINT('Origin',(16.363068142491,4.4999999989767,5.));
#1615=CARTESIAN_POINT('',(16.363068142491,4.4999999989767,0.));
#1616=CARTESIAN_POINT('',(8.18153407227742,4.50000000272903,0.));
#1617=CARTESIAN_POINT('',(16.363068142491,4.4999999989767,5.));
#1618=CARTESIAN_POINT('',(8.18153407227742,4.50000000272903,5.));
#1619=CARTESIAN_POINT('',(16.363068142491,4.4999999989767,5.));
#1620=CARTESIAN_POINT('Origin',(16.3630681729423,7.4999999989767,5.));
#1621=CARTESIAN_POINT('',(19.0902322651597,8.75003040425505,0.));
#1622=CARTESIAN_POINT('Origin',(16.3630681729423,7.4999999989767,0.));
#1623=CARTESIAN_POINT('',(19.0902322651597,8.75003040425505,5.));
#1624=CARTESIAN_POINT('Origin',(16.3630681729423,7.4999999989767,5.));
#1625=CARTESIAN_POINT('',(19.0902322651597,8.75003040425505,5.));
#1626=CARTESIAN_POINT('Origin',(2.19833040659978E-10,4.44662084930769E-10,
5.));
#1627=CARTESIAN_POINT('',(8.75001480268456,19.0902394157902,0.));
#1628=CARTESIAN_POINT('Origin',(2.19833040659978E-10,4.44662084930769E-10,
0.));
#1629=CARTESIAN_POINT('',(8.75001480268456,19.0902394157902,5.));
#1630=CARTESIAN_POINT('Origin',(2.19833040659978E-10,4.44662084930769E-10,
5.));
#1631=CARTESIAN_POINT('',(8.75001480268456,19.0902394157902,5.));
#1632=CARTESIAN_POINT('Origin',(7.50000000058531,16.3630681717109,5.));
#1633=CARTESIAN_POINT('',(4.50000000058531,16.3630681886325,0.));
#1634=CARTESIAN_POINT('Origin',(7.50000000058531,16.3630681717109,0.));
#1635=CARTESIAN_POINT('',(4.50000000058531,16.3630681886325,5.));
#1636=CARTESIAN_POINT('Origin',(7.50000000058531,16.3630681717109,5.));
#1637=CARTESIAN_POINT('',(4.50000000058531,16.3630681886325,5.));
#1638=CARTESIAN_POINT('Origin',(4.49999999999867,14.1332940206621,5.));
#1639=CARTESIAN_POINT('',(4.49999999813947,7.06664700973909,0.));
#1640=CARTESIAN_POINT('',(4.49999999813947,7.06664700973909,5.));
#1641=CARTESIAN_POINT('Origin',(-7.50000000000167,-14.1332940251051,5.));
#1642=CARTESIAN_POINT('',(-4.49999999999866,-14.1332940206621,0.));
#1643=CARTESIAN_POINT('',(-6.09375000436442,-11.4833013930798,0.));
#1644=CARTESIAN_POINT('Origin',(-7.50000000000167,-14.1332940251051,0.));
#1645=CARTESIAN_POINT('',(-4.49999999999866,-14.1332940206621,5.));
#1646=CARTESIAN_POINT('',(-4.49999999999866,-14.1332940206621,5.));
#1647=CARTESIAN_POINT('',(-6.09375000436442,-11.4833013930798,5.));
#1648=CARTESIAN_POINT('Origin',(-7.50000000000167,-14.1332940251051,5.));
#1649=CARTESIAN_POINT('',(-6.09375000436442,-11.4833013930798,5.));
#1650=CARTESIAN_POINT('Origin',(0.,0.,5.));
#1651=CARTESIAN_POINT('',(-11.483301371837,-6.09375004439518,5.));
#1652=CARTESIAN_POINT('Origin',(0.,0.,5.));
#1653=CARTESIAN_POINT('',(-11.483301371837,-6.09375004439518,0.));
#1654=CARTESIAN_POINT('',(-11.483301371837,-6.09375004439518,5.));
#1655=CARTESIAN_POINT('',(-11.483301371837,-6.09375004439518,5.));
#1656=CARTESIAN_POINT('',(-11.4833013930798,6.09375000436442,0.));
#1657=CARTESIAN_POINT('Origin',(1.77635683940025E-14,-3.5527136788005E-14,
0.));
#1658=CARTESIAN_POINT('',(-11.4833013930798,6.09375000436442,5.));
#1659=CARTESIAN_POINT('',(-11.4833013930798,6.09375000436442,5.));
#1660=CARTESIAN_POINT('',(-6.09375004439518,11.483301371837,5.));
#1661=CARTESIAN_POINT('Origin',(0.,0.,5.));
#1662=CARTESIAN_POINT('',(-6.09375004439518,11.483301371837,0.));
#1663=CARTESIAN_POINT('',(-6.09375004439518,11.483301371837,5.));
#1664=CARTESIAN_POINT('Origin',(1.77635683940025E-14,-3.5527136788005E-14,
0.));
#1665=CARTESIAN_POINT('Origin',(0.,0.,5.));
#1666=CARTESIAN_POINT('Origin',(1.77635683940025E-14,-3.5527136788005E-14,
0.));
#1667=CARTESIAN_POINT('Origin',(0.,0.,5.));
#1668=CARTESIAN_POINT('Origin',(1.77635683940025E-14,-3.5527136788005E-14,
0.));
#1669=CARTESIAN_POINT('Origin',(-14.1332940251029,-7.49999999999935,5.));
#1670=CARTESIAN_POINT('',(-14.1332939442423,-4.49999999999935,0.));
#1671=CARTESIAN_POINT('Origin',(-14.1332940251029,-7.49999999999935,0.));
#1672=CARTESIAN_POINT('',(-14.1332939442423,-4.49999999999935,5.));
#1673=CARTESIAN_POINT('Origin',(-14.1332940251029,-7.49999999999935,5.));
#1674=CARTESIAN_POINT('',(-14.1332939442423,-4.49999999999935,5.));
#1675=CARTESIAN_POINT('Origin',(-16.363068142491,-4.4999999989767,5.));
#1676=CARTESIAN_POINT('',(-16.363068142491,-4.4999999989767,0.));
#1677=CARTESIAN_POINT('',(-8.18153407227742,-4.50000000272903,0.));
#1678=CARTESIAN_POINT('',(-16.363068142491,-4.4999999989767,5.));
#1679=CARTESIAN_POINT('',(-8.18153407227742,-4.50000000272903,5.));
#1680=CARTESIAN_POINT('',(-16.363068142491,-4.4999999989767,5.));
#1681=CARTESIAN_POINT('Origin',(-16.3630681729423,-7.4999999989767,5.));
#1682=CARTESIAN_POINT('',(-19.0902322651597,-8.75003040425505,0.));
#1683=CARTESIAN_POINT('Origin',(-16.3630681729423,-7.4999999989767,0.));
#1684=CARTESIAN_POINT('',(-19.0902322651597,-8.75003040425505,5.));
#1685=CARTESIAN_POINT('Origin',(-16.3630681729423,-7.4999999989767,5.));
#1686=CARTESIAN_POINT('',(-19.0902322651597,-8.75003040425505,5.));
#1687=CARTESIAN_POINT('Origin',(2.19833040659978E-10,4.44662084930769E-10,
5.));
#1688=CARTESIAN_POINT('',(-8.75001480268456,-19.0902394157902,0.));
#1689=CARTESIAN_POINT('Origin',(2.19833040659978E-10,4.44662084930769E-10,
0.));
#1690=CARTESIAN_POINT('',(-8.75001480268456,-19.0902394157902,5.));
#1691=CARTESIAN_POINT('Origin',(2.19833040659978E-10,4.44662084930769E-10,
5.));
#1692=CARTESIAN_POINT('',(-8.75001480268456,-19.0902394157902,5.));
#1693=CARTESIAN_POINT('Origin',(-7.50000000058531,-16.3630681717109,5.));
#1694=CARTESIAN_POINT('',(-4.50000000058531,-16.3630681886325,0.));
#1695=CARTESIAN_POINT('Origin',(-7.50000000058531,-16.3630681717109,0.));
#1696=CARTESIAN_POINT('',(-4.50000000058531,-16.3630681886325,5.));
#1697=CARTESIAN_POINT('Origin',(-7.50000000058531,-16.3630681717109,5.));
#1698=CARTESIAN_POINT('',(-4.50000000058531,-16.3630681886325,5.));
#1699=CARTESIAN_POINT('Origin',(-4.49999999999866,-14.1332940206621,5.));
#1700=CARTESIAN_POINT('',(-4.49999999813947,-7.06664700973909,0.));
#1701=CARTESIAN_POINT('',(-4.49999999813947,-7.06664700973909,5.));
#1702=CARTESIAN_POINT('Origin',(-14.1332940251051,7.50000000000166,5.));
#1703=CARTESIAN_POINT('',(-14.1332940206621,4.49999999999866,0.));
#1704=CARTESIAN_POINT('Origin',(-14.1332940251051,7.50000000000166,0.));
#1705=CARTESIAN_POINT('',(-14.1332940206621,4.49999999999866,5.));
#1706=CARTESIAN_POINT('',(-14.1332940206621,4.49999999999866,5.));
#1707=CARTESIAN_POINT('Origin',(-14.1332940251051,7.50000000000166,5.));
#1708=CARTESIAN_POINT('Origin',(-7.49999999999935,14.1332940251029,5.));
#1709=CARTESIAN_POINT('',(-4.49999999999935,14.1332939442423,0.));
#1710=CARTESIAN_POINT('Origin',(-7.49999999999935,14.1332940251029,0.));
#1711=CARTESIAN_POINT('',(-4.49999999999935,14.1332939442423,5.));
#1712=CARTESIAN_POINT('Origin',(-7.49999999999935,14.1332940251029,5.));
#1713=CARTESIAN_POINT('',(-4.49999999999935,14.1332939442423,5.));
#1714=CARTESIAN_POINT('Origin',(-4.49999999897671,16.363068142491,5.));
#1715=CARTESIAN_POINT('',(-4.49999999897671,16.363068142491,0.));
#1716=CARTESIAN_POINT('',(-4.50000000272903,8.18153407227742,0.));
#1717=CARTESIAN_POINT('',(-4.49999999897671,16.363068142491,5.));
#1718=CARTESIAN_POINT('',(-4.50000000272903,8.18153407227742,5.));
#1719=CARTESIAN_POINT('',(-4.49999999897671,16.363068142491,5.));
#1720=CARTESIAN_POINT('Origin',(-7.49999999897671,16.3630681729423,5.));
#1721=CARTESIAN_POINT('',(-8.75003040425505,19.0902322651597,0.));
#1722=CARTESIAN_POINT('Origin',(-7.49999999897671,16.3630681729423,0.));
#1723=CARTESIAN_POINT('',(-8.75003040425505,19.0902322651597,5.));
#1724=CARTESIAN_POINT('Origin',(-7.49999999897671,16.3630681729423,5.));
#1725=CARTESIAN_POINT('',(-8.75003040425505,19.0902322651597,5.));
#1726=CARTESIAN_POINT('Origin',(2.19833040659978E-10,4.44662084930769E-10,
5.));
#1727=CARTESIAN_POINT('',(-19.0902394157902,8.75001480268456,0.));
#1728=CARTESIAN_POINT('Origin',(2.19833040659978E-10,4.44662084930769E-10,
0.));
#1729=CARTESIAN_POINT('',(-19.0902394157902,8.75001480268456,5.));
#1730=CARTESIAN_POINT('Origin',(2.19833040659978E-10,4.44662084930769E-10,
5.));
#1731=CARTESIAN_POINT('',(-19.0902394157902,8.75001480268456,5.));
#1732=CARTESIAN_POINT('Origin',(-16.3630681717109,7.50000000058531,5.));
#1733=CARTESIAN_POINT('',(-16.3630681886325,4.5000000005853,0.));
#1734=CARTESIAN_POINT('Origin',(-16.3630681717109,7.50000000058531,0.));
#1735=CARTESIAN_POINT('',(-16.3630681886325,4.5000000005853,5.));
#1736=CARTESIAN_POINT('Origin',(-16.3630681717109,7.50000000058531,5.));
#1737=CARTESIAN_POINT('',(-16.3630681886325,4.5000000005853,5.));
#1738=CARTESIAN_POINT('Origin',(-14.1332940206621,4.49999999999866,5.));
#1739=CARTESIAN_POINT('',(-7.06664700973909,4.49999999813947,0.));
#1740=CARTESIAN_POINT('',(-7.06664700973909,4.49999999813947,5.));
#1741=CARTESIAN_POINT('Origin',(18.,-3.30654635769785E-15,5.));
#1742=CARTESIAN_POINT('',(16.,-3.06161699786838E-15,5.));
#1743=CARTESIAN_POINT('Origin',(18.,-3.30654635769785E-15,5.));
#1744=CARTESIAN_POINT('',(16.,-3.55147571752732E-15,0.));
#1745=CARTESIAN_POINT('',(16.,-3.06161699786838E-15,5.));
#1746=CARTESIAN_POINT('Origin',(18.,-3.30654635769785E-15,0.));
#1747=CARTESIAN_POINT('Origin',(-2.20436423846524E-15,-18.,5.));
#1748=CARTESIAN_POINT('',(-2.,-18.,5.));
#1749=CARTESIAN_POINT('Origin',(-2.20436423846524E-15,-18.,5.));
#1750=CARTESIAN_POINT('',(-2.,-18.,0.));
#1751=CARTESIAN_POINT('',(-2.,-18.,5.));
#1752=CARTESIAN_POINT('Origin',(-2.20436423846524E-15,-18.,0.));
#1753=CARTESIAN_POINT('Origin',(-18.,1.10218211923262E-15,5.));
#1754=CARTESIAN_POINT('',(-20.,1.34711147906209E-15,5.));
#1755=CARTESIAN_POINT('Origin',(-18.,1.10218211923262E-15,5.));
#1756=CARTESIAN_POINT('',(-20.,8.57252759403147E-16,0.));
#1757=CARTESIAN_POINT('',(-20.,1.34711147906209E-15,5.));
#1758=CARTESIAN_POINT('Origin',(-18.,1.10218211923262E-15,0.));
#1759=CARTESIAN_POINT('Origin',(0.,18.,5.));
#1760=CARTESIAN_POINT('',(-2.,18.,5.));
#1761=CARTESIAN_POINT('Origin',(0.,18.,5.));
#1762=CARTESIAN_POINT('',(-2.,18.,0.));
#1763=CARTESIAN_POINT('',(-2.,18.,5.));
#1764=CARTESIAN_POINT('Origin',(0.,18.,0.));
#1765=CARTESIAN_POINT('Origin',(0.,0.,14.));
#1766=CARTESIAN_POINT('',(-22.,2.69422295812418E-15,14.));
#1767=CARTESIAN_POINT('Origin',(0.,0.,14.));
#1768=CARTESIAN_POINT('',(-22.,2.69422295812418E-15,5.));
#1769=CARTESIAN_POINT('',(-22.,2.69422295812418E-15,14.));
#1770=CARTESIAN_POINT('Origin',(0.,0.,5.));
#1771=CARTESIAN_POINT('Origin',(0.,0.,5.));
#1772=CARTESIAN_POINT('Origin',(0.,0.,0.));
#1773=CARTESIAN_POINT('',(-40.5,-4.95981953654678E-15,14.));
#1774=CARTESIAN_POINT('Origin',(0.,0.,14.));
#1775=CARTESIAN_POINT('',(-40.5,-4.95981953654678E-15,0.));
#1776=CARTESIAN_POINT('',(-40.5,-4.95981953654678E-15,0.));
#1777=CARTESIAN_POINT('Origin',(0.,0.,0.));
#1778=CARTESIAN_POINT('Origin',(0.,0.,14.));
#1779=CARTESIAN_POINT('Origin',(0.,0.,0.));
#1780=CARTESIAN_POINT('Origin',(1.77635683940025E-14,-3.5527136788005E-14,
0.));
#1781=CARTESIAN_POINT('Origin',(1.77635683940025E-14,-3.5527136788005E-14,
0.));
#1782=CARTESIAN_POINT('Origin',(1.77635683940025E-14,-3.5527136788005E-14,
0.));
#1783=CARTESIAN_POINT('Origin',(14.1332940251029,7.49999999999935,0.));
#1784=CARTESIAN_POINT('',(14.1332939442423,4.49999999999935,0.));
#1785=CARTESIAN_POINT('',(11.483301371837,6.09375004439518,0.));
#1786=CARTESIAN_POINT('Origin',(1.77635683940025E-14,-3.5527136788005E-14,
0.));
#1787=CARTESIAN_POINT('',(0.,0.,0.));
#1788=UNCERTAINTY_MEASURE_WITH_UNIT(LENGTH_MEASURE(0.01),#1792,
'DISTANCE_ACCURACY_VALUE',
'Maximum model space distance between geometric entities at asserted c
onnectivities');
#1789=UNCERTAINTY_MEASURE_WITH_UNIT(LENGTH_MEASURE(0.01),#1792,
'DISTANCE_ACCURACY_VALUE',
'Maximum model space distance between geometric entities at asserted c
onnectivities');
#1790=(
GEOMETRIC_REPRESENTATION_CONTEXT(3)
GLOBAL_UNCERTAINTY_ASSIGNED_CONTEXT((#1788))
GLOBAL_UNIT_ASSIGNED_CONTEXT((#1792,#1794,#1795))
REPRESENTATION_CONTEXT('','3D')
);
#1791=(
GEOMETRIC_REPRESENTATION_CONTEXT(3)
GLOBAL_UNCERTAINTY_ASSIGNED_CONTEXT((#1789))
GLOBAL_UNIT_ASSIGNED_CONTEXT((#1792,#1794,#1795))
REPRESENTATION_CONTEXT('','3D')
);
#1792=(
LENGTH_UNIT()
NAMED_UNIT(*)
SI_UNIT(.MILLI.,.METRE.)
);
#1793=(
LENGTH_UNIT()
NAMED_UNIT(*)
SI_UNIT(.CENTI.,.METRE.)
);
#1794=(
NAMED_UNIT(*)
PLANE_ANGLE_UNIT()
SI_UNIT($,.RADIAN.)
);
#1795=(
NAMED_UNIT(*)
SI_UNIT($,.STERADIAN.)
SOLID_ANGLE_UNIT()
);
#1796=SHAPE_DEFINITION_REPRESENTATION(#1797,#1798);
#1797=PRODUCT_DEFINITION_SHAPE('',$,#1800);
#1798=SHAPE_REPRESENTATION('',(#1038),#1790);
#1799=PRODUCT_DEFINITION_CONTEXT('part definition',#1804,'design');
#1800=PRODUCT_DEFINITION('MotorHousingV2','MotorHousingV2',#1801,#1799);
#1801=PRODUCT_DEFINITION_FORMATION('',$,#1806);
#1802=PRODUCT_RELATED_PRODUCT_CATEGORY('MotorHousingV2',
'MotorHousingV2',(#1806));
#1803=APPLICATION_PROTOCOL_DEFINITION('international standard',
'automotive_design',2009,#1804);
#1804=APPLICATION_CONTEXT(
'Core Data for Automotive Mechanical Design Process');
#1805=PRODUCT_CONTEXT('part definition',#1804,'mechanical');
#1806=PRODUCT('MotorHousingV2','MotorHousingV2',$,(#1805));
#1807=PRESENTATION_STYLE_ASSIGNMENT((#1810));
#1808=PRESENTATION_STYLE_ASSIGNMENT((#1811));
#1809=PRESENTATION_STYLE_ASSIGNMENT((#1812));
#1810=SURFACE_STYLE_USAGE(.BOTH.,#1815);
#1811=SURFACE_STYLE_USAGE(.BOTH.,#1816);
#1812=SURFACE_STYLE_USAGE(.BOTH.,#1817);
#1813=SURFACE_STYLE_RENDERING_WITH_PROPERTIES($,#1827,(#1814));
#1814=SURFACE_STYLE_TRANSPARENT(0.);
#1815=SURFACE_SIDE_STYLE('',(#1818,#1813));
#1816=SURFACE_SIDE_STYLE('',(#1819));
#1817=SURFACE_SIDE_STYLE('',(#1820));
#1818=SURFACE_STYLE_FILL_AREA(#1821);
#1819=SURFACE_STYLE_FILL_AREA(#1822);
#1820=SURFACE_STYLE_FILL_AREA(#1823);
#1821=FILL_AREA_STYLE('',(#1824));
#1822=FILL_AREA_STYLE('',(#1825));
#1823=FILL_AREA_STYLE('',(#1826));
#1824=FILL_AREA_STYLE_COLOUR('',#1827);
#1825=FILL_AREA_STYLE_COLOUR('',#1828);
#1826=FILL_AREA_STYLE_COLOUR('',#1829);
#1827=COLOUR_RGB('',0.92156862745098,0.92156862745098,0.92156862745098);
#1828=COLOUR_RGB('',0.227450980392157,0.580392156862745,0.341176470588235);
#1829=COLOUR_RGB('',0.,0.,0.627450980392157);
ENDSEC;
END-ISO-10303-21;
